{
.appVersion = "961";
DisplayStrings = (
/uni10447
);
copyright = "Copyright 2017 Google Inc. All Rights Reserved.";
customParameters = (
{
name = description;
value = "Designed by Monotype design team.";
},
{
name = license;
value = "This Font Software is licensed under the SIL Open Font License, Version 1.1. This Font Software is distributed on an \"AS IS\" BASIS, WITHOUT WARRANTIES OR CONDITIONS OF ANY KIND, either express or implied. See the SIL Open Font License for the specific language, permissions and limitations governing your use of this Font Software.";
},
{
name = licenseURL;
value = "http://scripts.sil.org/OFL";
},
{
name = vendorID;
value = GOOG;
},
{
name = unicodeRanges;
value = (
0,
1,
57,
87
);
},
{
name = glyphOrder;
value = (
.notdef,
NULL,
CR,
space,
uni00A0,
uni10400,
uni10401,
uni10402,
uni10403,
uni10404,
uni10405,
uni10406,
uni10407,
uni10408,
uni10409,
uni1040A,
uni1040B,
uni1040C,
uni1040D,
uni1040E,
uni1040F,
uni10410,
uni10411,
uni10412,
uni10413,
uni10414,
uni10415,
uni10416,
uni10417,
uni10418,
uni10419,
uni1041A,
uni1041B,
uni1041C,
uni1041D,
uni1041E,
uni1041F,
uni10420,
uni10421,
uni10422,
uni10423,
uni10424,
uni10425,
uni10426,
uni10427,
uni10428,
uni10429,
uni1042A,
uni1042B,
uni1042C,
uni1042D,
uni1042E,
uni1042F,
uni10430,
uni10431,
uni10432,
uni10433,
uni10434,
uni10435,
uni10436,
uni10437,
uni10438,
uni10439,
uni1043A,
uni1043B,
uni1043C,
uni1043D,
uni1043E,
uni1043F,
uni10440,
uni10441,
uni10442,
uni10443,
uni10444,
uni10445,
uni10446,
uni10447,
uni10448,
uni10449,
uni1044A,
uni1044B,
uni1044C,
uni1044D,
uni1044E,
uni1044F
);
},
{
name = versionString;
value = "Version 2.000";
},
{
name = "Has WWS Names";
value = 1;
},
{
name = trademark;
value = "Noto is a trademark of Google Inc.";
},
{
name = fsType;
value = (
);
}
);
date = "2017-01-11 16:52:27 +0000";
designer = "Monotype Design Team";
designerURL = "http://www.monotype.com/studio";
disablesAutomaticAlignment = 1;
disablesNiceNames = 1;

glyphs = (
{
glyphname = .notdef;
lastChange = "2017-01-11 16:50:05 +0000";
layers = (
{
layerId = "7C5BF59D-7654-4B4F-ABB3-02620379C849";
paths = (
{
closed = 1;
nodes = (
"505 0 LINE",
"505 714 LINE",
"94 714 LINE",
"94 0 LINE"
);
},
{
closed = 1;
nodes = (
"454 663 LINE",
"454 51 LINE",
"145 51 LINE",
"145 663 LINE"
);
}
);
width = 600;
}
);
note = .notdef;
},
{
glyphname = uni10400;
lastChange = "2017-01-11 16:50:05 +0000";
layers = (
{
layerId = "7C5BF59D-7654-4B4F-ABB3-02620379C849";
paths = (
{
closed = 1;
nodes = (
"420 443 OFFCURVE",
"354 481 OFFCURVE",
"266 481 CURVE SMOOTH",
"137 481 OFFCURVE",
"52 386 OFFCURVE",
"52 247 CURVE SMOOTH",
"52 104 OFFCURVE",
"150 -10 OFFCURVE",
"290 -10 CURVE SMOOTH",
"462 -10 OFFCURVE",
"553 116 OFFCURVE",
"553 358 CURVE SMOOTH",
"553 586 OFFCURVE",
"440 724 OFFCURVE",
"254 724 CURVE SMOOTH",
"188 724 OFFCURVE",
"129 710 OFFCURVE",
"80 682 CURVE",
"111 606 LINE",
"149 626 OFFCURVE",
"195 645 OFFCURVE",
"250 645 CURVE SMOOTH",
"382 645 OFFCURVE",
"459 548 OFFCURVE",
"459 377 CURVE",
"453 377 LINE"
);
},
{
closed = 1;
nodes = (
"205 66 OFFCURVE",
"143 137 OFFCURVE",
"143 239 CURVE SMOOTH",
"143 345 OFFCURVE",
"195 405 OFFCURVE",
"288 405 CURVE SMOOTH",
"378 405 OFFCURVE",
"450 335 OFFCURVE",
"450 253 CURVE SMOOTH",
"450 158 OFFCURVE",
"390 66 OFFCURVE",
"291 66 CURVE SMOOTH"
);
}
);
width = 614;
}
);
note = uni10400;
unicode = 10400;
},
{
glyphname = uni10401;
lastChange = "2017-01-11 16:50:05 +0000";
layers = (
{
layerId = "7C5BF59D-7654-4B4F-ABB3-02620379C849";
paths = (
{
closed = 1;
nodes = (
"82 448 OFFCURVE",
"134 389 OFFCURVE",
"234 372 CURVE",
"234 368 LINE",
"121 352 OFFCURVE",
"56 285 OFFCURVE",
"56 189 CURVE SMOOTH",
"56 63 OFFCURVE",
"146 -10 OFFCURVE",
"307 -10 CURVE SMOOTH",
"392 -10 OFFCURVE",
"461 4 OFFCURVE",
"515 31 CURVE",
"515 107 LINE",
"453 78 OFFCURVE",
"387 64 OFFCURVE",
"317 64 CURVE SMOOTH",
"207 64 OFFCURVE",
"150 112 OFFCURVE",
"150 192 CURVE SMOOTH",
"150 284 OFFCURVE",
"226 332 OFFCURVE",
"368 332 CURVE SMOOTH",
"416 332 LINE",
"416 407 LINE",
"373 407 LINE SMOOTH",
"238 407 OFFCURVE",
"175 446 OFFCURVE",
"175 532 CURVE SMOOTH",
"175 604 OFFCURVE",
"230 650 OFFCURVE",
"325 650 CURVE SMOOTH",
"383 650 OFFCURVE",
"438 633 OFFCURVE",
"490 599 CURVE",
"530 665 LINE",
"474 705 OFFCURVE",
"406 724 OFFCURVE",
"325 724 CURVE SMOOTH",
"173 724 OFFCURVE",
"82 651 OFFCURVE",
"82 536 CURVE SMOOTH"
);
}
);
width = 556;
}
);
note = uni10401;
unicode = 10401;
},
{
glyphname = uni10402;
lastChange = "2017-01-11 16:50:05 +0000";
layers = (
{
layerId = "7C5BF59D-7654-4B4F-ABB3-02620379C849";
paths = (
{
closed = 1;
nodes = (
"171 724 OFFCURVE",
"82 651 OFFCURVE",
"82 536 CURVE SMOOTH",
"82 448 OFFCURVE",
"134 389 OFFCURVE",
"234 372 CURVE",
"234 368 LINE",
"121 352 OFFCURVE",
"56 285 OFFCURVE",
"56 189 CURVE SMOOTH",
"56 66 OFFCURVE",
"144 -10 OFFCURVE",
"291 -10 CURVE SMOOTH",
"478 -10 OFFCURVE",
"585 125 OFFCURVE",
"585 358 CURVE SMOOTH",
"585 600 OFFCURVE",
"492 724 OFFCURVE",
"312 724 CURVE SMOOTH"
);
},
{
closed = 1;
nodes = (
"432 647 OFFCURVE",
"490 551 OFFCURVE",
"490 358 CURVE SMOOTH",
"490 163 OFFCURVE",
"425 65 OFFCURVE",
"295 65 CURVE SMOOTH",
"201 65 OFFCURVE",
"150 112 OFFCURVE",
"150 192 CURVE SMOOTH",
"150 284 OFFCURVE",
"226 332 OFFCURVE",
"368 332 CURVE SMOOTH",
"396 332 LINE",
"396 407 LINE",
"373 407 LINE SMOOTH",
"238 407 OFFCURVE",
"175 446 OFFCURVE",
"175 532 CURVE SMOOTH",
"175 605 OFFCURVE",
"223 647 OFFCURVE",
"310 647 CURVE SMOOTH"
);
}
);
width = 646;
}
);
note = uni10402;
unicode = 10402;
},
{
glyphname = uni10403;
lastChange = "2017-01-11 16:50:05 +0000";
layers = (
{
layerId = "7C5BF59D-7654-4B4F-ABB3-02620379C849";
paths = (
{
closed = 1;
nodes = (
"630 588 OFFCURVE",
"526 725 OFFCURVE",
"347 725 CURVE SMOOTH",
"164 725 OFFCURVE",
"61 593 OFFCURVE",
"61 359 CURVE SMOOTH",
"61 123 OFFCURVE",
"165 -10 OFFCURVE",
"346 -10 CURVE SMOOTH",
"525 -10 OFFCURVE",
"630 127 OFFCURVE",
"630 358 CURVE SMOOTH"
);
},
{
closed = 1;
nodes = (
"156 517 OFFCURVE",
"204 614 OFFCURVE",
"296 640 CURVE",
"283 600 OFFCURVE",
"277 560 OFFCURVE",
"277 520 CURVE SMOOTH",
"277 390 OFFCURVE",
"352 311 OFFCURVE",
"487 311 CURVE SMOOTH",
"504 311 OFFCURVE",
"520 313 OFFCURVE",
"534 315 CURVE",
"526 155 OFFCURVE",
"459 68 OFFCURVE",
"346 68 CURVE SMOOTH",
"221 68 OFFCURVE",
"156 170 OFFCURVE",
"156 358 CURVE SMOOTH"
);
},
{
closed = 1;
nodes = (
"398 369 OFFCURVE",
"344 420 OFFCURVE",
"344 526 CURVE SMOOTH",
"344 569 OFFCURVE",
"350 609 OFFCURVE",
"362 645 CURVE",
"474 637 OFFCURVE",
"533 544 OFFCURVE",
"535 372 CURVE",
"524 370 OFFCURVE",
"510 369 OFFCURVE",
"493 369 CURVE SMOOTH"
);
}
);
width = 691;
}
);
note = uni10403;
unicode = 10403;
},
{
glyphname = uni10404;
lastChange = "2017-01-11 16:50:05 +0000";
layers = (
{
layerId = "7C5BF59D-7654-4B4F-ABB3-02620379C849";
paths = (
{
closed = 1;
nodes = (
"630 588 OFFCURVE",
"526 725 OFFCURVE",
"347 725 CURVE SMOOTH",
"164 725 OFFCURVE",
"61 593 OFFCURVE",
"61 359 CURVE SMOOTH",
"61 123 OFFCURVE",
"165 -10 OFFCURVE",
"346 -10 CURVE SMOOTH",
"525 -10 OFFCURVE",
"630 127 OFFCURVE",
"630 358 CURVE SMOOTH"
);
},
{
closed = 1;
nodes = (
"156 547 OFFCURVE",
"222 646 OFFCURVE",
"347 646 CURVE SMOOTH",
"472 646 OFFCURVE",
"535 546 OFFCURVE",
"535 358 CURVE SMOOTH",
"535 168 OFFCURVE",
"471 68 OFFCURVE",
"346 68 CURVE SMOOTH",
"221 68 OFFCURVE",
"156 170 OFFCURVE",
"156 358 CURVE SMOOTH"
);
}
);
width = 691;
}
);
note = uni10404;
unicode = 10404;
},
{
glyphname = uni10405;
lastChange = "2017-01-11 16:50:05 +0000";
layers = (
{
layerId = "7C5BF59D-7654-4B4F-ABB3-02620379C849";
paths = (
{
closed = 1;
nodes = (
"630 588 OFFCURVE",
"526 725 OFFCURVE",
"347 725 CURVE SMOOTH",
"164 725 OFFCURVE",
"61 593 OFFCURVE",
"61 359 CURVE SMOOTH",
"61 123 OFFCURVE",
"165 -10 OFFCURVE",
"346 -10 CURVE SMOOTH",
"525 -10 OFFCURVE",
"630 127 OFFCURVE",
"630 358 CURVE SMOOTH"
);
},
{
closed = 1;
nodes = (
"535 184 OFFCURVE",
"479 85 OFFCURVE",
"376 70 CURVE",
"376 644 LINE",
"479 630 OFFCURVE",
"535 532 OFFCURVE",
"535 358 CURVE SMOOTH"
);
},
{
closed = 1;
nodes = (
"156 530 OFFCURVE",
"211 628 OFFCURVE",
"315 643 CURVE",
"315 70 LINE",
"212 85 OFFCURVE",
"156 184 OFFCURVE",
"156 358 CURVE SMOOTH"
);
}
);
width = 691;
}
);
note = uni10405;
unicode = 10405;
},
{
glyphname = uni10406;
lastChange = "2017-01-11 16:50:05 +0000";
layers = (
{
layerId = "7C5BF59D-7654-4B4F-ABB3-02620379C849";
paths = (
{
closed = 1;
nodes = (
"209 348 LINE",
"209 0 LINE",
"299 0 LINE",
"299 296 LINE",
"432 219 LINE",
"476 288 LINE",
"299 391 LINE",
"299 714 LINE",
"209 714 LINE",
"209 444 LINE",
"76 523 LINE",
"30 453 LINE"
);
}
);
width = 508;
}
);
note = uni10406;
unicode = 10406;
},
{
glyphname = uni10407;
lastChange = "2017-01-11 16:50:05 +0000";
layers = (
{
layerId = "7C5BF59D-7654-4B4F-ABB3-02620379C849";
paths = (
{
closed = 1;
nodes = (
"426 119 LINE",
"395 161 OFFCURVE",
"329 190 OFFCURVE",
"256 190 CURVE SMOOTH",
"132 190 OFFCURVE",
"42 123 OFFCURVE",
"10 11 CURVE",
"98 -17 LINE",
"124 63 OFFCURVE",
"179 104 OFFCURVE",
"262 104 CURVE SMOOTH",
"338 104 OFFCURVE",
"400 63 OFFCURVE",
"426 0 CURVE",
"516 0 LINE",
"516 714 LINE",
"426 714 LINE"
);
}
);
width = 613;
}
);
note = uni10407;
unicode = 10407;
},
{
glyphname = uni10408;
lastChange = "2017-01-11 16:50:05 +0000";
layers = (
{
layerId = "7C5BF59D-7654-4B4F-ABB3-02620379C849";
paths = (
{
closed = 1;
nodes = (
"383 714 LINE",
"383 103 LINE",
"73 261 LINE",
"27 183 LINE",
"385 0 LINE",
"476 0 LINE",
"476 714 LINE"
);
}
);
width = 574;
}
);
note = uni10408;
unicode = 10408;
},
{
glyphname = uni10409;
lastChange = "2017-01-11 16:50:05 +0000";
layers = (
{
layerId = "7C5BF59D-7654-4B4F-ABB3-02620379C849";
paths = (
{
closed = 1;
nodes = (
"540 714 LINE",
"540 124 LINE",
"414 250 LINE",
"354 250 LINE",
"254 99 LINE",
"92 257 LINE",
"27 191 LINE",
"226 0 LINE",
"292 0 LINE",
"388 153 LINE",
"542 0 LINE",
"633 0 LINE",
"633 714 LINE"
);
}
);
width = 731;
}
);
note = uni10409;
unicode = 10409;
},
{
glyphname = uni1040A;
lastChange = "2017-01-11 16:50:05 +0000";
layers = (
{
layerId = "7C5BF59D-7654-4B4F-ABB3-02620379C849";
paths = (
{
closed = 1;
nodes = (
"187 578 LINE",
"219 536 OFFCURVE",
"285 507 OFFCURVE",
"357 507 CURVE SMOOTH",
"479 507 OFFCURVE",
"571 574 OFFCURVE",
"603 686 CURVE",
"515 714 LINE",
"489 633 OFFCURVE",
"435 593 OFFCURVE",
"351 593 CURVE SMOOTH",
"276 593 OFFCURVE",
"213 633 OFFCURVE",
"187 697 CURVE",
"97 697 LINE",
"97 -17 LINE",
"187 -17 LINE"
);
}
);
width = 613;
}
);
note = uni1040A;
unicode = 1040A;
},
{
glyphname = uni1040B;
lastChange = "2017-01-11 16:50:05 +0000";
layers = (
{
layerId = "7C5BF59D-7654-4B4F-ABB3-02620379C849";
paths = (
{
closed = 1;
nodes = (
"51 360 OFFCURVE",
"151 278 OFFCURVE",
"336 278 CURVE SMOOTH",
"418 278 LINE",
"418 0 LINE",
"508 0 LINE",
"508 472 LINE SMOOTH",
"508 636 OFFCURVE",
"426 725 OFFCURVE",
"268 725 CURVE SMOOTH",
"135 725 OFFCURVE",
"51 640 OFFCURVE",
"51 512 CURVE SMOOTH"
);
},
{
closed = 1;
nodes = (
"346 355 LINE SMOOTH",
"203 355 OFFCURVE",
"144 400 OFFCURVE",
"144 508 CURVE SMOOTH",
"144 595 OFFCURVE",
"194 648 OFFCURVE",
"274 648 CURVE SMOOTH",
"368 648 OFFCURVE",
"418 591 OFFCURVE",
"418 464 CURVE SMOOTH",
"418 355 LINE"
);
}
);
width = 605;
}
);
note = uni1040B;
unicode = 1040B;
},
{
glyphname = uni1040C;
lastChange = "2017-01-11 16:50:05 +0000";
layers = (
{
layerId = "7C5BF59D-7654-4B4F-ABB3-02620379C849";
paths = (
{
closed = 1;
nodes = (
"50 55 OFFCURVE",
"114 -11 OFFCURVE",
"222 -11 CURVE SMOOTH",
"334 -11 OFFCURVE",
"401 62 OFFCURVE",
"401 188 CURVE SMOOTH",
"401 295 LINE",
"496 281 OFFCURVE",
"544 239 OFFCURVE",
"544 169 CURVE SMOOTH",
"544 120 OFFCURVE",
"521 83 OFFCURVE",
"474 58 CURVE",
"511 -10 LINE",
"593 26 OFFCURVE",
"638 93 OFFCURVE",
"638 177 CURVE SMOOTH",
"638 290 OFFCURVE",
"552 363 OFFCURVE",
"401 375 CURVE",
"401 714 LINE",
"311 714 LINE",
"311 376 LINE",
"146 366 OFFCURVE",
"50 286 OFFCURVE",
"50 164 CURVE SMOOTH"
);
},
{
closed = 1;
nodes = (
"311 106 OFFCURVE",
"278 66 OFFCURVE",
"226 66 CURVE SMOOTH",
"177 66 OFFCURVE",
"143 104 OFFCURVE",
"143 164 CURVE SMOOTH",
"143 246 OFFCURVE",
"199 291 OFFCURVE",
"311 299 CURVE",
"311 179 LINE SMOOTH"
);
}
);
width = 688;
}
);
note = uni1040C;
unicode = 1040C;
},
{
glyphname = uni1040D;
lastChange = "2017-01-11 16:50:05 +0000";
layers = (
{
layerId = "7C5BF59D-7654-4B4F-ABB3-02620379C849";
paths = (
{
closed = 1;
nodes = (
"171 724 OFFCURVE",
"82 651 OFFCURVE",
"82 536 CURVE SMOOTH",
"82 448 OFFCURVE",
"134 389 OFFCURVE",
"234 372 CURVE",
"234 368 LINE",
"121 352 OFFCURVE",
"56 285 OFFCURVE",
"56 189 CURVE SMOOTH",
"56 66 OFFCURVE",
"144 -10 OFFCURVE",
"291 -10 CURVE SMOOTH",
"478 -10 OFFCURVE",
"585 125 OFFCURVE",
"585 358 CURVE SMOOTH",
"585 600 OFFCURVE",
"492 724 OFFCURVE",
"312 724 CURVE SMOOTH"
);
},
{
closed = 1;
nodes = (
"201 65 OFFCURVE",
"150 112 OFFCURVE",
"150 192 CURVE SMOOTH",
"150 284 OFFCURVE",
"226 332 OFFCURVE",
"368 332 CURVE SMOOTH",
"489 332 LINE",
"483 154 OFFCURVE",
"418 65 OFFCURVE",
"295 65 CURVE SMOOTH"
);
},
{
closed = 1;
nodes = (
"368 439 OFFCURVE",
"343 490 OFFCURVE",
"343 546 CURVE SMOOTH",
"343 575 OFFCURVE",
"349 608 OFFCURVE",
"362 645 CURVE",
"437 622 OFFCURVE",
"482 538 OFFCURVE",
"488 407 CURVE",
"410 407 LINE"
);
},
{
closed = 1;
nodes = (
"171 603 OFFCURVE",
"216 646 OFFCURVE",
"300 649 CURVE",
"286 613 OFFCURVE",
"279 577 OFFCURVE",
"279 541 CURVE SMOOTH",
"279 491 OFFCURVE",
"297 446 OFFCURVE",
"335 407 CURVE",
"226 414 OFFCURVE",
"171 456 OFFCURVE",
"171 532 CURVE SMOOTH"
);
}
);
width = 646;
}
);
note = uni1040D;
unicode = 1040D;
},
{
glyphname = uni1040E;
lastChange = "2017-01-11 16:50:05 +0000";
layers = (
{
layerId = "7C5BF59D-7654-4B4F-ABB3-02620379C849";
paths = (
{
closed = 1;
nodes = (
"320 -10 OFFCURVE",
"365 23 OFFCURVE",
"388 97 CURVE",
"393 97 LINE",
"413 26 OFFCURVE",
"457 -10 OFFCURVE",
"525 -10 CURVE SMOOTH",
"645 -10 OFFCURVE",
"705 105 OFFCURVE",
"705 334 CURVE SMOOTH",
"705 471 OFFCURVE",
"689 578 OFFCURVE",
"646 714 CURVE",
"550 714 LINE",
"595 569 OFFCURVE",
"610 465 OFFCURVE",
"610 332 CURVE SMOOTH",
"610 206 OFFCURVE",
"601 68 OFFCURVE",
"517 68 CURVE SMOOTH",
"451 68 OFFCURVE",
"436 154 OFFCURVE",
"436 252 CURVE SMOOTH",
"436 419 LINE",
"346 419 LINE",
"346 252 LINE SMOOTH",
"346 162 OFFCURVE",
"336 68 OFFCURVE",
"264 68 CURVE SMOOTH",
"184 68 OFFCURVE",
"172 202 OFFCURVE",
"172 332 CURVE SMOOTH",
"172 458 OFFCURVE",
"192 585 OFFCURVE",
"232 714 CURVE",
"136 714 LINE",
"96 591 OFFCURVE",
"77 477 OFFCURVE",
"77 334 CURVE SMOOTH",
"77 104 OFFCURVE",
"135 -10 OFFCURVE",
"254 -10 CURVE SMOOTH"
);
}
);
width = 782;
}
);
note = uni1040E;
unicode = 1040E;
},
{
glyphname = uni1040F;
lastChange = "2017-01-11 16:50:05 +0000";
layers = (
{
layerId = "7C5BF59D-7654-4B4F-ABB3-02620379C849";
paths = (
{
closed = 1;
nodes = (
"700 476 OFFCURVE",
"649 442 OFFCURVE",
"591 423 CURVE",
"674 714 LINE",
"582 714 LINE",
"498 405 LINE",
"474 402 OFFCURVE",
"451 401 OFFCURVE",
"431 401 CURVE SMOOTH",
"400 401 OFFCURVE",
"374 402 OFFCURVE",
"352 406 CURVE",
"300 596 LINE SMOOTH",
"276 684 OFFCURVE",
"238 724 OFFCURVE",
"164 724 CURVE SMOOTH",
"85 724 OFFCURVE",
"34 674 OFFCURVE",
"34 590 CURVE SMOOTH",
"34 477 OFFCURVE",
"126 386 OFFCURVE",
"277 350 CURVE",
"373 0 LINE",
"471 0 LINE",
"569 346 LINE",
"661 369 OFFCURVE",
"748 418 OFFCURVE",
"795 476 CURVE",
"742 526 LINE"
);
},
{
closed = 1;
nodes = (
"185 647 OFFCURVE",
"202 629 OFFCURVE",
"215 580 CURVE SMOOTH",
"255 428 LINE",
"170 457 OFFCURVE",
"117 519 OFFCURVE",
"117 592 CURVE SMOOTH",
"117 629 OFFCURVE",
"137 647 OFFCURVE",
"159 647 CURVE SMOOTH"
);
},
{
closed = 1;
nodes = (
"412 150 OFFCURVE",
"395 229 OFFCURVE",
"370 334 CURVE",
"393 332 OFFCURVE",
"415 331 OFFCURVE",
"436 331 CURVE SMOOTH",
"450 331 OFFCURVE",
"465 332 OFFCURVE",
"479 333 CURVE",
"453 233 OFFCURVE",
"437 174 OFFCURVE",
"433 155 CURVE SMOOTH",
"429 136 OFFCURVE",
"425 118 OFFCURVE",
"422 100 CURVE"
);
}
);
width = 802;
}
);
note = uni1040F;
unicode = 1040F;
},
{
glyphname = uni10410;
lastChange = "2017-01-11 16:50:05 +0000";
layers = (
{
layerId = "7C5BF59D-7654-4B4F-ABB3-02620379C849";
paths = (
{
closed = 1;
nodes = (
"638 659 OFFCURVE",
"574 725 OFFCURVE",
"466 725 CURVE SMOOTH",
"354 725 OFFCURVE",
"287 652 OFFCURVE",
"287 526 CURVE SMOOTH",
"287 419 LINE",
"192 433 OFFCURVE",
"144 475 OFFCURVE",
"144 545 CURVE SMOOTH",
"144 594 OFFCURVE",
"167 631 OFFCURVE",
"214 656 CURVE",
"177 724 LINE",
"95 688 OFFCURVE",
"50 621 OFFCURVE",
"50 537 CURVE SMOOTH",
"50 424 OFFCURVE",
"136 351 OFFCURVE",
"287 339 CURVE",
"287 0 LINE",
"377 0 LINE",
"377 338 LINE",
"539 348 OFFCURVE",
"638 427 OFFCURVE",
"638 550 CURVE SMOOTH"
);
},
{
closed = 1;
nodes = (
"377 607 OFFCURVE",
"410 648 OFFCURVE",
"462 648 CURVE SMOOTH",
"511 648 OFFCURVE",
"545 610 OFFCURVE",
"545 550 CURVE SMOOTH",
"545 468 OFFCURVE",
"489 423 OFFCURVE",
"377 415 CURVE",
"377 535 LINE SMOOTH"
);
}
);
width = 688;
}
);
note = uni10410;
unicode = 10410;
},
{
glyphname = uni10411;
lastChange = "2017-01-11 16:50:05 +0000";
layers = (
{
layerId = "7C5BF59D-7654-4B4F-ABB3-02620379C849";
paths = (
{
closed = 1;
nodes = (
"19 634 LINE",
"331 634 LINE",
"331 0 LINE",
"421 0 LINE",
"421 714 LINE",
"19 714 LINE"
);
}
);
width = 524;
}
);
note = uni10411;
unicode = 10411;
},
{
glyphname = uni10412;
lastChange = "2017-01-11 16:50:05 +0000";
layers = (
{
layerId = "7C5BF59D-7654-4B4F-ABB3-02620379C849";
paths = (
{
closed = 1;
nodes = (
"168 724 OFFCURVE",
"82 649 OFFCURVE",
"82 536 CURVE SMOOTH",
"82 448 OFFCURVE",
"134 389 OFFCURVE",
"234 372 CURVE",
"234 368 LINE",
"121 352 OFFCURVE",
"56 285 OFFCURVE",
"56 189 CURVE SMOOTH",
"56 68 OFFCURVE",
"141 -10 OFFCURVE",
"273 -10 CURVE SMOOTH",
"368 -10 OFFCURVE",
"445 33 OFFCURVE",
"479 111 CURVE",
"479 0 LINE",
"569 0 LINE",
"569 714 LINE",
"479 714 LINE",
"479 617 LINE",
"453 682 OFFCURVE",
"390 724 OFFCURVE",
"297 724 CURVE SMOOTH"
);
},
{
closed = 1;
nodes = (
"423 647 OFFCURVE",
"479 559 OFFCURVE",
"479 358 CURVE SMOOTH",
"479 344 LINE SMOOTH",
"476 161 OFFCURVE",
"409 65 OFFCURVE",
"285 65 CURVE SMOOTH",
"202 65 OFFCURVE",
"150 112 OFFCURVE",
"150 192 CURVE SMOOTH",
"150 284 OFFCURVE",
"226 332 OFFCURVE",
"368 332 CURVE SMOOTH",
"396 332 LINE",
"396 407 LINE",
"373 407 LINE SMOOTH",
"238 407 OFFCURVE",
"175 446 OFFCURVE",
"175 532 CURVE SMOOTH",
"175 604 OFFCURVE",
"223 647 OFFCURVE",
"301 647 CURVE SMOOTH"
);
}
);
width = 667;
}
);
note = uni10412;
unicode = 10412;
},
{
glyphname = uni10413;
lastChange = "2017-01-11 16:50:05 +0000";
layers = (
{
layerId = "7C5BF59D-7654-4B4F-ABB3-02620379C849";
paths = (
{
closed = 1;
nodes = (
"102 578 OFFCURVE",
"154 646 OFFCURVE",
"259 646 CURVE SMOOTH",
"366 646 OFFCURVE",
"413 587 OFFCURVE",
"413 448 CURVE SMOOTH",
"413 0 LINE",
"503 0 LINE",
"503 466 LINE SMOOTH",
"503 638 OFFCURVE",
"423 724 OFFCURVE",
"264 724 CURVE SMOOTH",
"95 724 OFFCURVE",
"13 626 OFFCURVE",
"13 443 CURVE",
"102 443 LINE"
);
}
);
width = 600;
}
);
note = uni10413;
unicode = 10413;
},
{
glyphname = uni10414;
lastChange = "2017-01-11 16:50:05 +0000";
layers = (
{
layerId = "7C5BF59D-7654-4B4F-ABB3-02620379C849";
paths = (
{
closed = 1;
nodes = (
"562 0 LINE",
"562 714 LINE",
"472 714 LINE",
"472 620 LINE",
"441 686 OFFCURVE",
"385 724 OFFCURVE",
"314 724 CURVE SMOOTH",
"148 724 OFFCURVE",
"61 594 OFFCURVE",
"61 356 CURVE SMOOTH",
"61 120 OFFCURVE",
"145 -10 OFFCURVE",
"299 -10 CURVE SMOOTH",
"377 -10 OFFCURVE",
"435 28 OFFCURVE",
"472 103 CURVE",
"472 0 LINE"
);
},
{
closed = 1;
nodes = (
"406 648 OFFCURVE",
"472 579 OFFCURVE",
"472 478 CURVE SMOOTH",
"472 378 OFFCURVE",
"409 308 OFFCURVE",
"317 308 CURVE SMOOTH",
"225 308 OFFCURVE",
"164 375 OFFCURVE",
"164 474 CURVE SMOOTH",
"164 576 OFFCURVE",
"228 648 OFFCURVE",
"318 648 CURVE SMOOTH"
);
},
{
closed = 1;
nodes = (
"193 277 OFFCURVE",
"248 245 OFFCURVE",
"316 245 CURVE SMOOTH",
"383 245 OFFCURVE",
"442 281 OFFCURVE",
"472 342 CURVE",
"472 208 LINE",
"451 120 OFFCURVE",
"396 69 OFFCURVE",
"320 69 CURVE SMOOTH",
"207 69 OFFCURVE",
"155 194 OFFCURVE",
"155 337 CURVE",
"158 337 LINE"
);
}
);
width = 660;
}
);
note = uni10414;
unicode = 10414;
},
{
glyphname = uni10415;
lastChange = "2017-01-11 16:50:05 +0000";
layers = (
{
layerId = "7C5BF59D-7654-4B4F-ABB3-02620379C849";
paths = (
{
closed = 1;
nodes = (
"412 645 OFFCURVE",
"458 632 OFFCURVE",
"507 606 CURVE",
"538 682 LINE",
"489 710 OFFCURVE",
"431 724 OFFCURVE",
"364 724 CURVE SMOOTH",
"165 724 OFFCURVE",
"61 568 OFFCURVE",
"61 358 CURVE SMOOTH",
"61 124 OFFCURVE",
"164 -10 OFFCURVE",
"349 -10 CURVE SMOOTH",
"411 -10 OFFCURVE",
"458 -3 OFFCURVE",
"510 19 CURVE",
"510 97 LINE",
"456 78 OFFCURVE",
"408 69 OFFCURVE",
"365 69 CURVE SMOOTH",
"231 69 OFFCURVE",
"156 173 OFFCURVE",
"156 357 CURVE SMOOTH",
"156 536 OFFCURVE",
"237 645 OFFCURVE",
"368 645 CURVE SMOOTH"
);
}
);
width = 569;
}
);
note = uni10415;
unicode = 10415;
},
{
glyphname = uni10416;
lastChange = "2017-01-11 16:50:05 +0000";
layers = (
{
layerId = "7C5BF59D-7654-4B4F-ABB3-02620379C849";
paths = (
{
closed = 1;
nodes = (
"303 244 OFFCURVE",
"333 250 OFFCURVE",
"359 260 CURVE",
"208 0 LINE",
"308 0 LINE",
"474 307 LINE",
"417 359 LINE",
"391 338 OFFCURVE",
"337 320 OFFCURVE",
"290 320 CURVE SMOOTH",
"192 320 OFFCURVE",
"137 377 OFFCURVE",
"137 479 CURVE SMOOTH",
"137 586 OFFCURVE",
"200 648 OFFCURVE",
"304 648 CURVE SMOOTH",
"354 648 OFFCURVE",
"400 633 OFFCURVE",
"444 603 CURVE",
"481 673 LINE",
"442 702 OFFCURVE",
"382 725 OFFCURVE",
"309 725 CURVE SMOOTH",
"149 725 OFFCURVE",
"46 626 OFFCURVE",
"46 476 CURVE SMOOTH",
"46 332 OFFCURVE",
"132 244 OFFCURVE",
"271 244 CURVE SMOOTH"
);
}
);
width = 511;
}
);
note = uni10416;
unicode = 10416;
},
{
glyphname = uni10417;
lastChange = "2017-01-11 16:50:05 +0000";
layers = (
{
layerId = "7C5BF59D-7654-4B4F-ABB3-02620379C849";
paths = (
{
closed = 1;
nodes = (
"594 206 OFFCURVE",
"584 68 OFFCURVE",
"501 68 CURVE SMOOTH",
"435 68 OFFCURVE",
"420 154 OFFCURVE",
"420 252 CURVE SMOOTH",
"420 299 LINE",
"330 299 LINE",
"330 252 LINE SMOOTH",
"330 162 OFFCURVE",
"320 68 OFFCURVE",
"248 68 CURVE SMOOTH",
"187 68 OFFCURVE",
"156 156 OFFCURVE",
"156 332 CURVE SMOOTH",
"156 538 OFFCURVE",
"233 646 OFFCURVE",
"377 646 CURVE SMOOTH",
"521 646 OFFCURVE",
"594 538 OFFCURVE",
"594 334 CURVE SMOOTH"
);
},
{
closed = 1;
nodes = (
"61 104 OFFCURVE",
"119 -10 OFFCURVE",
"238 -10 CURVE SMOOTH",
"304 -10 OFFCURVE",
"349 23 OFFCURVE",
"372 97 CURVE",
"377 97 LINE",
"396 26 OFFCURVE",
"440 -10 OFFCURVE",
"509 -10 CURVE SMOOTH",
"625 -10 OFFCURVE",
"689 110 OFFCURVE",
"689 334 CURVE SMOOTH",
"689 578 OFFCURVE",
"573 725 OFFCURVE",
"377 725 CURVE SMOOTH",
"166 725 OFFCURVE",
"61 558 OFFCURVE",
"61 334 CURVE SMOOTH"
);
}
);
width = 750;
}
);
note = uni10417;
unicode = 10417;
},
{
glyphname = uni10418;
lastChange = "2017-01-11 16:50:05 +0000";
layers = (
{
layerId = "7C5BF59D-7654-4B4F-ABB3-02620379C849";
paths = (
{
closed = 1;
nodes = (
"156 513 OFFCURVE",
"213 616 OFFCURVE",
"327 641 CURVE",
"314 605 OFFCURVE",
"307 565 OFFCURVE",
"307 520 CURVE SMOOTH",
"307 385 OFFCURVE",
"383 311 OFFCURVE",
"523 311 CURVE SMOOTH",
"537 311 OFFCURVE",
"579 313 OFFCURVE",
"594 317 CURVE",
"591 198 OFFCURVE",
"580 68 OFFCURVE",
"501 68 CURVE SMOOTH",
"435 68 OFFCURVE",
"420 154 OFFCURVE",
"420 252 CURVE SMOOTH",
"420 299 LINE",
"330 299 LINE",
"330 252 LINE SMOOTH",
"330 162 OFFCURVE",
"320 68 OFFCURVE",
"248 68 CURVE SMOOTH",
"187 68 OFFCURVE",
"156 156 OFFCURVE",
"156 332 CURVE SMOOTH"
);
},
{
closed = 1;
nodes = (
"425 369 OFFCURVE",
"374 420 OFFCURVE",
"374 526 CURVE SMOOTH",
"374 567 OFFCURVE",
"382 620 OFFCURVE",
"392 645 CURVE",
"517 639 OFFCURVE",
"585 544 OFFCURVE",
"593 374 CURVE",
"575 371 OFFCURVE",
"555 369 OFFCURVE",
"532 369 CURVE SMOOTH"
);
},
{
closed = 1;
nodes = (
"61 104 OFFCURVE",
"119 -10 OFFCURVE",
"238 -10 CURVE SMOOTH",
"304 -10 OFFCURVE",
"349 23 OFFCURVE",
"372 97 CURVE",
"377 97 LINE",
"396 26 OFFCURVE",
"440 -10 OFFCURVE",
"509 -10 CURVE SMOOTH",
"625 -10 OFFCURVE",
"689 110 OFFCURVE",
"689 334 CURVE SMOOTH",
"689 578 OFFCURVE",
"573 725 OFFCURVE",
"377 725 CURVE SMOOTH",
"166 725 OFFCURVE",
"61 558 OFFCURVE",
"61 334 CURVE SMOOTH"
);
}
);
width = 750;
}
);
note = uni10418;
unicode = 10418;
},
{
glyphname = uni10419;
lastChange = "2017-01-11 16:50:05 +0000";
layers = (
{
layerId = "7C5BF59D-7654-4B4F-ABB3-02620379C849";
paths = (
{
closed = 1;
nodes = (
"554 640 OFFCURVE",
"470 725 OFFCURVE",
"337 725 CURVE SMOOTH",
"179 725 OFFCURVE",
"97 636 OFFCURVE",
"97 472 CURVE SMOOTH",
"97 0 LINE",
"187 0 LINE",
"187 278 LINE",
"269 278 LINE SMOOTH",
"453 278 OFFCURVE",
"554 360 OFFCURVE",
"554 512 CURVE SMOOTH"
);
},
{
closed = 1;
nodes = (
"187 591 OFFCURVE",
"237 648 OFFCURVE",
"331 648 CURVE SMOOTH",
"411 648 OFFCURVE",
"461 594 OFFCURVE",
"461 508 CURVE SMOOTH",
"461 400 OFFCURVE",
"402 355 OFFCURVE",
"259 355 CURVE SMOOTH",
"187 355 LINE",
"187 464 LINE SMOOTH"
);
}
);
width = 605;
}
);
note = uni10419;
unicode = 10419;
},
{
glyphname = uni1041A;
lastChange = "2017-01-11 16:50:05 +0000";
layers = (
{
layerId = "7C5BF59D-7654-4B4F-ABB3-02620379C849";
paths = (
{
closed = 1;
nodes = (
"466 662 OFFCURVE",
"386 724 OFFCURVE",
"236 724 CURVE SMOOTH",
"155 724 OFFCURVE",
"81 702 OFFCURVE",
"26 665 CURVE",
"62 599 LINE",
"114 633 OFFCURVE",
"168 650 OFFCURVE",
"226 650 CURVE SMOOTH",
"321 650 OFFCURVE",
"373 609 OFFCURVE",
"373 531 CURVE SMOOTH",
"373 447 OFFCURVE",
"310 407 OFFCURVE",
"173 407 CURVE SMOOTH",
"132 407 LINE",
"132 332 LINE",
"200 332 LINE SMOOTH",
"335 332 OFFCURVE",
"398 290 OFFCURVE",
"398 194 CURVE SMOOTH",
"398 110 OFFCURVE",
"331 64 OFFCURVE",
"222 64 CURVE SMOOTH",
"158 64 OFFCURVE",
"93 78 OFFCURVE",
"28 107 CURVE",
"28 29 LINE",
"79 5 OFFCURVE",
"153 -10 OFFCURVE",
"227 -10 CURVE SMOOTH",
"387 -10 OFFCURVE",
"492 75 OFFCURVE",
"492 201 CURVE SMOOTH",
"492 295 OFFCURVE",
"430 357 OFFCURVE",
"314 374 CURVE",
"314 378 LINE",
"410 394 OFFCURVE",
"466 456 OFFCURVE",
"466 547 CURVE SMOOTH"
);
}
);
width = 548;
}
);
note = uni1041A;
unicode = 1041A;
},
{
glyphname = uni1041B;
lastChange = "2017-01-11 16:50:05 +0000";
layers = (
{
layerId = "7C5BF59D-7654-4B4F-ABB3-02620379C849";
paths = (
{
closed = 1;
nodes = (
"499 80 LINE",
"187 80 LINE",
"187 714 LINE",
"97 714 LINE",
"97 0 LINE",
"499 0 LINE"
);
}
);
width = 524;
}
);
note = uni1041B;
unicode = 1041B;
},
{
glyphname = uni1041C;
lastChange = "2017-01-11 16:50:05 +0000";
layers = (
{
layerId = "7C5BF59D-7654-4B4F-ABB3-02620379C849";
paths = (
{
closed = 1;
nodes = (
"469 714 LINE",
"286 433 LINE",
"98 714 LINE",
"0 714 LINE",
"238 363 LINE",
"204 310 LINE SMOOTH",
"159 240 OFFCURVE",
"136 183 OFFCURVE",
"136 138 CURVE SMOOTH",
"136 44 OFFCURVE",
"195 -10 OFFCURVE",
"287 -10 CURVE SMOOTH",
"376 -10 OFFCURVE",
"440 51 OFFCURVE",
"440 141 CURVE SMOOTH",
"440 186 OFFCURVE",
"420 238 OFFCURVE",
"374 308 CURVE SMOOTH",
"337 364 LINE",
"566 714 LINE"
);
},
{
closed = 1;
nodes = (
"358 95 OFFCURVE",
"334 64 OFFCURVE",
"286 64 CURVE SMOOTH",
"243 64 OFFCURVE",
"217 92 OFFCURVE",
"217 138 CURVE SMOOTH",
"217 176 OFFCURVE",
"240 228 OFFCURVE",
"285 294 CURVE",
"333 226 OFFCURVE",
"358 175 OFFCURVE",
"358 140 CURVE SMOOTH"
);
}
);
width = 566;
}
);
note = uni1041C;
unicode = 1041C;
},
{
glyphname = uni1041D;
lastChange = "2017-01-11 16:50:05 +0000";
layers = (
{
layerId = "7C5BF59D-7654-4B4F-ABB3-02620379C849";
paths = (
{
closed = 1;
nodes = (
"165 724 OFFCURVE",
"81 661 OFFCURVE",
"81 559 CURVE SMOOTH",
"81 522 OFFCURVE",
"99 478 OFFCURVE",
"126 450 CURVE",
"85 455 OFFCURVE",
"47 468 OFFCURVE",
"11 490 CURVE",
"-19 429 LINE",
"33 397 OFFCURVE",
"99 382 OFFCURVE",
"180 382 CURVE SMOOTH",
"197 382 LINE",
"220 367 OFFCURVE",
"239 355 OFFCURVE",
"255 347 CURVE",
"135 327 OFFCURVE",
"56 254 OFFCURVE",
"56 158 CURVE SMOOTH",
"56 55 OFFCURVE",
"143 -10 OFFCURVE",
"283 -10 CURVE SMOOTH",
"427 -10 OFFCURVE",
"512 54 OFFCURVE",
"512 155 CURVE SMOOTH",
"512 205 OFFCURVE",
"491 249 OFFCURVE",
"448 286 CURVE",
"489 282 OFFCURVE",
"527 269 OFFCURVE",
"564 248 CURVE",
"595 310 LINE",
"540 341 OFFCURVE",
"463 357 OFFCURVE",
"365 357 CURVE",
"306 390 LINE",
"425 412 OFFCURVE",
"497 477 OFFCURVE",
"497 566 CURVE SMOOTH",
"497 660 OFFCURVE",
"415 724 OFFCURVE",
"298 724 CURVE SMOOTH"
);
},
{
closed = 1;
nodes = (
"142 238 OFFCURVE",
"203 277 OFFCURVE",
"328 291 CURVE",
"391 261 OFFCURVE",
"426 214 OFFCURVE",
"426 160 CURVE SMOOTH",
"426 97 OFFCURVE",
"380 60 OFFCURVE",
"283 60 CURVE SMOOTH",
"195 60 OFFCURVE",
"142 103 OFFCURVE",
"142 170 CURVE SMOOTH"
);
},
{
closed = 1;
nodes = (
"361 653 OFFCURVE",
"410 613 OFFCURVE",
"410 557 CURVE SMOOTH",
"410 484 OFFCURVE",
"338 461 OFFCURVE",
"240 447 CURVE",
"193 474 OFFCURVE",
"167 511 OFFCURVE",
"167 553 CURVE SMOOTH",
"167 620 OFFCURVE",
"212 653 OFFCURVE",
"292 653 CURVE SMOOTH"
);
}
);
width = 572;
}
);
note = uni1041D;
unicode = 1041D;
},
{
glyphname = uni1041E;
lastChange = "2017-01-11 16:50:05 +0000";
layers = (
{
layerId = "7C5BF59D-7654-4B4F-ABB3-02620379C849";
paths = (
{
closed = 1;
nodes = (
"155 549 OFFCURVE",
"232 645 OFFCURVE",
"364 645 CURVE SMOOTH",
"419 645 OFFCURVE",
"464 626 OFFCURVE",
"503 606 CURVE",
"534 682 LINE",
"484 710 OFFCURVE",
"426 724 OFFCURVE",
"360 724 CURVE SMOOTH",
"174 724 OFFCURVE",
"61 585 OFFCURVE",
"61 358 CURVE SMOOTH",
"61 116 OFFCURVE",
"152 -10 OFFCURVE",
"324 -10 CURVE SMOOTH",
"462 -10 OFFCURVE",
"562 99 OFFCURVE",
"562 247 CURVE SMOOTH",
"562 390 OFFCURVE",
"475 481 OFFCURVE",
"348 481 CURVE SMOOTH",
"261 481 OFFCURVE",
"195 444 OFFCURVE",
"161 377 CURVE",
"155 377 LINE"
);
},
{
closed = 1;
nodes = (
"223 66 OFFCURVE",
"164 159 OFFCURVE",
"164 253 CURVE SMOOTH",
"164 319 OFFCURVE",
"223 405 OFFCURVE",
"326 405 CURVE SMOOTH",
"418 405 OFFCURVE",
"471 345 OFFCURVE",
"471 239 CURVE SMOOTH",
"471 137 OFFCURVE",
"410 66 OFFCURVE",
"323 66 CURVE SMOOTH"
);
}
);
width = 600;
}
);
note = uni1041E;
unicode = 1041E;
},
{
glyphname = uni1041F;
lastChange = "2017-01-11 16:50:05 +0000";
layers = (
{
layerId = "7C5BF59D-7654-4B4F-ABB3-02620379C849";
paths = (
{
closed = 1;
nodes = (
"98 714 LINE",
"98 0 LINE",
"188 0 LINE",
"188 94 LINE",
"219 28 OFFCURVE",
"275 -10 OFFCURVE",
"346 -10 CURVE SMOOTH",
"511 -10 OFFCURVE",
"599 120 OFFCURVE",
"599 358 CURVE SMOOTH",
"599 596 OFFCURVE",
"515 724 OFFCURVE",
"361 724 CURVE SMOOTH",
"283 724 OFFCURVE",
"226 687 OFFCURVE",
"188 611 CURVE",
"188 714 LINE"
);
},
{
closed = 1;
nodes = (
"210 595 OFFCURVE",
"265 645 OFFCURVE",
"340 645 CURVE SMOOTH",
"445 645 OFFCURVE",
"505 547 OFFCURVE",
"505 357 CURVE SMOOTH",
"505 164 OFFCURVE",
"451 68 OFFCURVE",
"342 68 CURVE SMOOTH",
"265 68 OFFCURVE",
"205 125 OFFCURVE",
"188 207 CURVE",
"188 506 LINE"
);
}
);
width = 660;
}
);
note = uni1041F;
unicode = 1041F;
},
{
glyphname = uni10420;
lastChange = "2017-01-11 16:50:05 +0000";
layers = (
{
layerId = "7C5BF59D-7654-4B4F-ABB3-02620379C849";
paths = (
{
closed = 1;
nodes = (
"502 224 OFFCURVE",
"496 253 OFFCURVE",
"483 277 CURVE SMOOTH",
"458 325 OFFCURVE",
"413 358 OFFCURVE",
"307 397 CURVE SMOOTH",
"263 413 OFFCURVE",
"230 428 OFFCURVE",
"210 440 CURVE SMOOTH",
"168 466 OFFCURVE",
"151 494 OFFCURVE",
"151 541 CURVE SMOOTH",
"151 607 OFFCURVE",
"202 645 OFFCURVE",
"286 645 CURVE SMOOTH",
"339 645 OFFCURVE",
"396 632 OFFCURVE",
"457 607 CURVE",
"485 684 LINE",
"425 711 OFFCURVE",
"359 724 OFFCURVE",
"288 724 CURVE SMOOTH",
"151 724 OFFCURVE",
"60 653 OFFCURVE",
"60 542 CURVE SMOOTH",
"60 438 OFFCURVE",
"112 378 OFFCURVE",
"244 330 CURVE SMOOTH",
"291 313 OFFCURVE",
"326 298 OFFCURVE",
"349 285 CURVE SMOOTH",
"395 258 OFFCURVE",
"412 230 OFFCURVE",
"412 183 CURVE SMOOTH",
"412 111 OFFCURVE",
"358 68 OFFCURVE",
"251 68 CURVE SMOOTH",
"188 68 OFFCURVE",
"111 84 OFFCURVE",
"51 110 CURVE",
"51 24 LINE",
"97 1 OFFCURVE",
"163 -10 OFFCURVE",
"247 -10 CURVE SMOOTH",
"407 -10 OFFCURVE",
"502 66 OFFCURVE",
"502 191 CURVE SMOOTH"
);
}
);
width = 549;
}
);
note = uni10420;
unicode = 10420;
},
{
glyphname = uni10421;
lastChange = "2017-01-11 16:50:05 +0000";
layers = (
{
layerId = "7C5BF59D-7654-4B4F-ABB3-02620379C849";
paths = (
{
closed = 1;
nodes = (
"50 269 OFFCURVE",
"149 184 OFFCURVE",
"311 178 CURVE",
"311 0 LINE",
"401 0 LINE",
"401 179 LINE",
"547 193 OFFCURVE",
"638 276 OFFCURVE",
"638 395 CURVE SMOOTH",
"638 479 OFFCURVE",
"596 535 OFFCURVE",
"511 564 CURVE",
"474 494 LINE",
"522 476 OFFCURVE",
"546 442 OFFCURVE",
"546 393 CURVE SMOOTH",
"546 319 OFFCURVE",
"491 266 OFFCURVE",
"401 258 CURVE",
"401 714 LINE",
"311 714 LINE",
"311 486 LINE",
"292 537 OFFCURVE",
"252 565 OFFCURVE",
"200 565 CURVE SMOOTH",
"109 565 OFFCURVE",
"50 500 OFFCURVE",
"50 402 CURVE SMOOTH"
);
},
{
closed = 1;
nodes = (
"199 265 OFFCURVE",
"143 314 OFFCURVE",
"143 405 CURVE SMOOTH",
"143 457 OFFCURVE",
"171 488 OFFCURVE",
"215 488 CURVE SMOOTH",
"273 488 OFFCURVE",
"311 420 OFFCURVE",
"311 315 CURVE SMOOTH",
"311 256 LINE"
);
}
);
width = 688;
}
);
note = uni10421;
unicode = 10421;
},
{
glyphname = uni10422;
lastChange = "2017-01-11 16:50:05 +0000";
layers = (
{
layerId = "7C5BF59D-7654-4B4F-ABB3-02620379C849";
paths = (
{
closed = 1;
nodes = (
"498 137 OFFCURVE",
"446 69 OFFCURVE",
"341 69 CURVE SMOOTH",
"235 69 OFFCURVE",
"187 127 OFFCURVE",
"187 267 CURVE SMOOTH",
"187 715 LINE",
"97 715 LINE",
"97 249 LINE SMOOTH",
"97 77 OFFCURVE",
"177 -9 OFFCURVE",
"336 -9 CURVE SMOOTH",
"504 -9 OFFCURVE",
"587 89 OFFCURVE",
"587 272 CURVE",
"498 272 LINE"
);
}
);
width = 600;
}
);
note = uni10422;
unicode = 10422;
},
{
glyphname = uni10423;
lastChange = "2017-01-11 16:50:05 +0000";
layers = (
{
layerId = "7C5BF59D-7654-4B4F-ABB3-02620379C849";
paths = (
{
closed = 1;
nodes = (
"149 69 OFFCURVE",
"96 83 OFFCURVE",
"43 110 CURVE",
"43 22 LINE",
"87 1 OFFCURVE",
"138 -10 OFFCURVE",
"196 -10 CURVE SMOOTH",
"390 -10 OFFCURVE",
"508 128 OFFCURVE",
"508 359 CURVE SMOOTH",
"508 597 OFFCURVE",
"406 724 OFFCURVE",
"215 724 CURVE SMOOTH",
"154 724 OFFCURVE",
"97 712 OFFCURVE",
"43 689 CURVE",
"65 612 LINE",
"114 634 OFFCURVE",
"161 645 OFFCURVE",
"204 645 CURVE SMOOTH",
"340 645 OFFCURVE",
"413 545 OFFCURVE",
"413 360 CURVE SMOOTH",
"413 176 OFFCURVE",
"334 69 OFFCURVE",
"201 69 CURVE SMOOTH"
);
}
);
width = 569;
}
);
note = uni10423;
unicode = 10423;
},
{
glyphname = uni10424;
lastChange = "2017-01-11 16:50:05 +0000";
layers = (
{
layerId = "7C5BF59D-7654-4B4F-ABB3-02620379C849";
paths = (
{
closed = 1;
nodes = (
"465 0 LINE",
"555 0 LINE",
"555 530 LINE",
"465 530 LINE",
"187 313 LINE",
"187 714 LINE",
"97 714 LINE",
"97 217 LINE",
"187 217 LINE",
"465 430 LINE"
);
}
);
width = 653;
}
);
note = uni10424;
unicode = 10424;
},
{
glyphname = uni10425;
lastChange = "2017-01-11 16:50:05 +0000";
layers = (
{
layerId = "7C5BF59D-7654-4B4F-ABB3-02620379C849";
paths = (
{
closed = 1;
nodes = (
"198 0 LINE",
"512 594 LINE",
"516 594 LINE",
"514 567 OFFCURVE",
"508 456 OFFCURVE",
"508 388 CURVE SMOOTH",
"508 0 LINE",
"592 0 LINE",
"592 714 LINE",
"492 714 LINE",
"179 123 LINE",
"175 123 LINE",
"178 150 OFFCURVE",
"182 267 OFFCURVE",
"182 322 CURVE SMOOTH",
"182 714 LINE",
"98 714 LINE",
"98 0 LINE"
);
}
);
width = 690;
}
);
note = uni10425;
unicode = 10425;
},
{
glyphname = uni10426;
lastChange = "2017-01-11 16:50:05 +0000";
layers = (
{
layerId = "7C5BF59D-7654-4B4F-ABB3-02620379C849";
paths = (
{
closed = 1;
nodes = (
"540 445 LINE",
"540 124 LINE",
"414 250 LINE",
"354 250 LINE",
"254 99 LINE",
"92 257 LINE",
"27 191 LINE",
"226 0 LINE",
"292 0 LINE",
"388 153 LINE",
"542 0 LINE",
"633 0 LINE",
"633 390 LINE",
"731 333 LINE",
"775 402 LINE",
"633 486 LINE",
"633 714 LINE",
"540 714 LINE",
"540 541 LINE",
"427 608 LINE",
"381 538 LINE"
);
}
);
width = 757;
}
);
note = uni10426;
unicode = 10426;
},
{
glyphname = uni10427;
lastChange = "2017-01-11 16:50:05 +0000";
layers = (
{
layerId = "7C5BF59D-7654-4B4F-ABB3-02620379C849";
paths = (
{
closed = 1;
nodes = (
"630 588 OFFCURVE",
"526 725 OFFCURVE",
"347 725 CURVE SMOOTH",
"164 725 OFFCURVE",
"61 593 OFFCURVE",
"61 359 CURVE SMOOTH",
"61 123 OFFCURVE",
"165 -10 OFFCURVE",
"346 -10 CURVE SMOOTH",
"525 -10 OFFCURVE",
"630 127 OFFCURVE",
"630 358 CURVE SMOOTH"
);
},
{
closed = 1;
nodes = (
"535 184 OFFCURVE",
"479 85 OFFCURVE",
"376 70 CURVE",
"376 290 LINE",
"470 222 LINE",
"493 301 LINE",
"376 388 LINE",
"376 644 LINE",
"479 630 OFFCURVE",
"535 532 OFFCURVE",
"535 358 CURVE SMOOTH"
);
},
{
closed = 1;
nodes = (
"315 335 LINE",
"315 70 LINE",
"212 85 OFFCURVE",
"156 184 OFFCURVE",
"156 358 CURVE SMOOTH",
"156 530 OFFCURVE",
"211 628 OFFCURVE",
"315 643 CURVE",
"315 433 LINE",
"225 500 LINE",
"199 420 LINE"
);
}
);
width = 691;
}
);
note = uni10427;
unicode = 10427;
},
{
glyphname = uni10428;
lastChange = "2017-01-11 16:50:05 +0000";
layers = (
{
layerId = "7C5BF59D-7654-4B4F-ABB3-02620379C849";
paths = (
{
closed = 1;
nodes = (
"122 366 OFFCURVE",
"44 296 OFFCURVE",
"44 186 CURVE SMOOTH",
"44 72 OFFCURVE",
"137 -10 OFFCURVE",
"253 -10 CURVE SMOOTH",
"397 -10 OFFCURVE",
"478 90 OFFCURVE",
"478 268 CURVE SMOOTH",
"478 438 OFFCURVE",
"384 546 OFFCURVE",
"231 546 CURVE SMOOTH",
"174 546 OFFCURVE",
"121 533 OFFCURVE",
"70 508 CURVE",
"94 439 LINE",
"139 461 OFFCURVE",
"184 472 OFFCURVE",
"230 472 CURVE SMOOTH",
"317 472 OFFCURVE",
"377 412 OFFCURVE",
"384 301 CURVE",
"353 343 OFFCURVE",
"299 366 OFFCURVE",
"240 366 CURVE SMOOTH"
);
},
{
closed = 1;
nodes = (
"184 63 OFFCURVE",
"135 113 OFFCURVE",
"135 181 CURVE SMOOTH",
"135 252 OFFCURVE",
"178 295 OFFCURVE",
"250 295 CURVE SMOOTH",
"324 295 OFFCURVE",
"377 250 OFFCURVE",
"377 192 CURVE SMOOTH",
"377 118 OFFCURVE",
"326 63 OFFCURVE",
"254 63 CURVE SMOOTH"
);
}
);
width = 533;
}
);
note = uni10428;
unicode = 10428;
},
{
glyphname = uni10429;
lastChange = "2017-01-11 16:50:05 +0000";
layers = (
{
layerId = "7C5BF59D-7654-4B4F-ABB3-02620379C849";
paths = (
{
closed = 1;
nodes = (
"197 315 OFFCURVE",
"146 342 OFFCURVE",
"146 397 CURVE SMOOTH",
"146 448 OFFCURVE",
"187 473 OFFCURVE",
"267 473 CURVE SMOOTH",
"315 473 OFFCURVE",
"352 467 OFFCURVE",
"416 438 CURVE",
"449 508 LINE",
"393 535 OFFCURVE",
"340 546 OFFCURVE",
"268 546 CURVE SMOOTH",
"144 546 OFFCURVE",
"62 492 OFFCURVE",
"62 404 CURVE SMOOTH",
"62 343 OFFCURVE",
"98 300 OFFCURVE",
"162 282 CURVE",
"162 277 LINE",
"77 252 OFFCURVE",
"43 210 OFFCURVE",
"43 146 CURVE SMOOTH",
"43 50 OFFCURVE",
"125 -10 OFFCURVE",
"268 -10 CURVE SMOOTH",
"342 -10 OFFCURVE",
"401 2 OFFCURVE",
"447 27 CURVE",
"447 104 LINE",
"382 73 OFFCURVE",
"328 62 OFFCURVE",
"273 62 CURVE SMOOTH",
"180 62 OFFCURVE",
"131 93 OFFCURVE",
"131 151 CURVE SMOOTH",
"131 212 OFFCURVE",
"181 243 OFFCURVE",
"282 243 CURVE SMOOTH",
"355 243 LINE",
"355 315 LINE",
"299 315 LINE SMOOTH"
);
}
);
width = 489;
}
);
note = uni10429;
unicode = 10429;
},
{
glyphname = uni1042A;
lastChange = "2017-01-11 16:50:05 +0000";
layers = (
{
layerId = "7C5BF59D-7654-4B4F-ABB3-02620379C849";
paths = (
{
closed = 1;
nodes = (
"142 546 OFFCURVE",
"64 488 OFFCURVE",
"64 398 CURVE SMOOTH",
"64 341 OFFCURVE",
"100 299 OFFCURVE",
"159 279 CURVE",
"89 260 OFFCURVE",
"43 218 OFFCURVE",
"43 146 CURVE SMOOTH",
"43 50 OFFCURVE",
"119 -9 OFFCURVE",
"244 -9 CURVE SMOOTH",
"403 -9 OFFCURVE",
"494 94 OFFCURVE",
"494 268 CURVE SMOOTH",
"494 451 OFFCURVE",
"414 546 OFFCURVE",
"261 546 CURVE SMOOTH"
);
},
{
closed = 1;
nodes = (
"355 474 OFFCURVE",
"404 405 OFFCURVE",
"404 268 CURVE SMOOTH",
"404 131 OFFCURVE",
"350 62 OFFCURVE",
"248 62 CURVE SMOOTH",
"171 62 OFFCURVE",
"130 95 OFFCURVE",
"130 148 CURVE SMOOTH",
"130 211 OFFCURVE",
"186 242 OFFCURVE",
"298 242 CURVE SMOOTH",
"339 242 LINE",
"339 313 LINE",
"302 313 LINE SMOOTH",
"195 313 OFFCURVE",
"151 338 OFFCURVE",
"151 395 CURVE SMOOTH",
"151 444 OFFCURVE",
"188 474 OFFCURVE",
"259 474 CURVE SMOOTH"
);
}
);
width = 549;
}
);
note = uni1042A;
unicode = 1042A;
},
{
glyphname = uni1042B;
lastChange = "2017-01-11 16:50:05 +0000";
layers = (
{
layerId = "7C5BF59D-7654-4B4F-ABB3-02620379C849";
paths = (
{
closed = 1;
nodes = (
"551 440 OFFCURVE",
"457 546 OFFCURVE",
"304 546 CURVE SMOOTH",
"147 546 OFFCURVE",
"55 445 OFFCURVE",
"55 269 CURVE SMOOTH",
"55 99 OFFCURVE",
"152 -10 OFFCURVE",
"301 -10 CURVE SMOOTH",
"458 -10 OFFCURVE",
"551 96 OFFCURVE",
"551 268 CURVE SMOOTH"
);
},
{
closed = 1;
nodes = (
"146 382 OFFCURVE",
"183 448 OFFCURVE",
"257 467 CURVE",
"249 441 OFFCURVE",
"245 415 OFFCURVE",
"245 390 CURVE SMOOTH",
"245 274 OFFCURVE",
"302 220 OFFCURVE",
"419 220 CURVE SMOOTH",
"425 220 OFFCURVE",
"438 222 OFFCURVE",
"458 224 CURVE",
"446 118 OFFCURVE",
"393 63 OFFCURVE",
"303 63 CURVE SMOOTH",
"201 63 OFFCURVE",
"146 133 OFFCURVE",
"146 268 CURVE SMOOTH"
);
},
{
closed = 1;
nodes = (
"337 271 OFFCURVE",
"303 306 OFFCURVE",
"303 400 CURVE SMOOTH",
"303 429 OFFCURVE",
"309 460 OFFCURVE",
"313 472 CURVE",
"409 465 OFFCURVE",
"458 399 OFFCURVE",
"460 274 CURVE",
"447 272 OFFCURVE",
"436 271 OFFCURVE",
"425 271 CURVE SMOOTH"
);
}
);
width = 606;
}
);
note = uni1042B;
unicode = 1042B;
},
{
glyphname = uni1042C;
lastChange = "2017-01-11 16:50:05 +0000";
layers = (
{
layerId = "7C5BF59D-7654-4B4F-ABB3-02620379C849";
paths = (
{
closed = 1;
nodes = (
"551 439 OFFCURVE",
"455 546 OFFCURVE",
"304 546 CURVE SMOOTH",
"146 546 OFFCURVE",
"55 443 OFFCURVE",
"55 269 CURVE SMOOTH",
"55 106 OFFCURVE",
"146 -10 OFFCURVE",
"301 -10 CURVE SMOOTH",
"457 -10 OFFCURVE",
"551 94 OFFCURVE",
"551 269 CURVE SMOOTH"
);
},
{
closed = 1;
nodes = (
"146 404 OFFCURVE",
"198 472 OFFCURVE",
"302 472 CURVE SMOOTH",
"405 472 OFFCURVE",
"460 404 OFFCURVE",
"460 269 CURVE SMOOTH",
"460 134 OFFCURVE",
"405 63 OFFCURVE",
"303 63 CURVE SMOOTH",
"200 63 OFFCURVE",
"146 134 OFFCURVE",
"146 269 CURVE SMOOTH"
);
}
);
width = 605;
}
);
note = uni1042C;
unicode = 1042C;
},
{
glyphname = uni1042D;
lastChange = "2017-01-11 16:50:05 +0000";
layers = (
{
layerId = "7C5BF59D-7654-4B4F-ABB3-02620379C849";
paths = (
{
closed = 1;
nodes = (
"551 439 OFFCURVE",
"455 546 OFFCURVE",
"304 546 CURVE SMOOTH",
"146 546 OFFCURVE",
"55 443 OFFCURVE",
"55 269 CURVE SMOOTH",
"55 106 OFFCURVE",
"146 -10 OFFCURVE",
"301 -10 CURVE SMOOTH",
"457 -10 OFFCURVE",
"551 94 OFFCURVE",
"551 269 CURVE SMOOTH"
);
},
{
closed = 1;
nodes = (
"146 392 OFFCURVE",
"190 459 OFFCURVE",
"276 470 CURVE",
"276 65 LINE",
"191 76 OFFCURVE",
"146 146 OFFCURVE",
"146 269 CURVE SMOOTH"
);
},
{
closed = 1;
nodes = (
"460 152 OFFCURVE",
"418 77 OFFCURVE",
"330 65 CURVE",
"330 470 LINE",
"415 458 OFFCURVE",
"460 389 OFFCURVE",
"460 269 CURVE SMOOTH"
);
}
);
width = 606;
}
);
note = uni1042D;
unicode = 1042D;
},
{
glyphname = uni1042E;
lastChange = "2017-01-11 16:50:05 +0000";
layers = (
{
layerId = "7C5BF59D-7654-4B4F-ABB3-02620379C849";
paths = (
{
closed = 1;
nodes = (
"157 257 LINE",
"157 0 LINE",
"245 0 LINE",
"245 212 LINE",
"349 156 LINE",
"385 230 LINE",
"245 305 LINE",
"245 536 LINE",
"157 536 LINE",
"157 352 LINE",
"54 409 LINE",
"15 335 LINE"
);
}
);
width = 400;
}
);
note = uni1042E;
unicode = 1042E;
},
{
glyphname = uni1042F;
lastChange = "2017-01-11 16:50:05 +0000";
layers = (
{
layerId = "7C5BF59D-7654-4B4F-ABB3-02620379C849";
paths = (
{
closed = 1;
nodes = (
"348 109 LINE",
"317 140 OFFCURVE",
"268 159 OFFCURVE",
"216 159 CURVE SMOOTH",
"118 159 OFFCURVE",
"42 104 OFFCURVE",
"10 9 CURVE",
"90 -15 LINE",
"111 48 OFFCURVE",
"155 80 OFFCURVE",
"216 80 CURVE SMOOTH",
"277 80 OFFCURVE",
"327 50 OFFCURVE",
"351 0 CURVE",
"436 0 LINE",
"436 536 LINE",
"348 536 LINE"
);
}
);
width = 521;
}
);
note = uni1042F;
unicode = 1042F;
},
{
glyphname = uni10430;
lastChange = "2017-01-11 16:50:05 +0000";
layers = (
{
layerId = "7C5BF59D-7654-4B4F-ABB3-02620379C849";
paths = (
{
closed = 1;
nodes = (
"312 536 LINE",
"312 94 LINE",
"59 208 LINE",
"14 138 LINE",
"320 0 LINE",
"400 0 LINE",
"400 536 LINE"
);
}
);
width = 485;
}
);
note = uni10430;
unicode = 10430;
},
{
glyphname = uni10431;
lastChange = "2017-01-11 16:50:05 +0000";
layers = (
{
layerId = "7C5BF59D-7654-4B4F-ABB3-02620379C849";
paths = (
{
closed = 1;
nodes = (
"444 536 LINE",
"444 116 LINE",
"345 217 LINE",
"290 217 LINE",
"205 89 LINE",
"71 225 LINE",
"10 168 LINE",
"178 0 LINE",
"240 0 LINE",
"322 127 LINE",
"451 0 LINE",
"532 0 LINE",
"532 536 LINE"
);
}
);
width = 617;
}
);
note = uni10431;
unicode = 10431;
},
{
glyphname = uni10432;
lastChange = "2017-01-11 16:50:05 +0000";
layers = (
{
layerId = "7C5BF59D-7654-4B4F-ABB3-02620379C849";
paths = (
{
closed = 1;
nodes = (
"173 427 LINE",
"204 396 OFFCURVE",
"254 377 OFFCURVE",
"305 377 CURVE SMOOTH",
"402 377 OFFCURVE",
"479 431 OFFCURVE",
"511 527 CURVE",
"431 551 LINE",
"410 488 OFFCURVE",
"368 456 OFFCURVE",
"305 456 CURVE SMOOTH",
"244 456 OFFCURVE",
"194 486 OFFCURVE",
"170 536 CURVE",
"85 536 LINE",
"85 0 LINE",
"173 0 LINE"
);
}
);
width = 521;
}
);
note = uni10432;
unicode = 10432;
},
{
glyphname = uni10433;
lastChange = "2017-01-11 16:50:05 +0000";
layers = (
{
layerId = "7C5BF59D-7654-4B4F-ABB3-02620379C849";
paths = (
{
closed = 1;
nodes = (
"54 263 OFFCURVE",
"137 202 OFFCURVE",
"293 202 CURVE SMOOTH",
"357 202 LINE",
"357 0 LINE",
"445 0 LINE",
"445 350 LINE SMOOTH",
"445 479 OFFCURVE",
"370 544 OFFCURVE",
"241 544 CURVE SMOOTH",
"126 544 OFFCURVE",
"54 478 OFFCURVE",
"54 374 CURVE SMOOTH"
);
},
{
closed = 1;
nodes = (
"306 274 LINE SMOOTH",
"191 274 OFFCURVE",
"144 306 OFFCURVE",
"144 378 CURVE SMOOTH",
"144 435 OFFCURVE",
"184 472 OFFCURVE",
"246 472 CURVE SMOOTH",
"320 472 OFFCURVE",
"357 430 OFFCURVE",
"357 344 CURVE SMOOTH",
"357 274 LINE"
);
}
);
width = 526;
}
);
note = uni10433;
unicode = 10433;
},
{
glyphname = uni10434;
lastChange = "2017-01-11 16:50:05 +0000";
layers = (
{
layerId = "7C5BF59D-7654-4B4F-ABB3-02620379C849";
paths = (
{
closed = 1;
nodes = (
"40 47 OFFCURVE",
"96 -8 OFFCURVE",
"189 -8 CURVE SMOOTH",
"288 -8 OFFCURVE",
"344 54 OFFCURVE",
"344 150 CURVE SMOOTH",
"344 234 LINE",
"412 225 OFFCURVE",
"451 189 OFFCURVE",
"451 138 CURVE SMOOTH",
"451 98 OFFCURVE",
"430 69 OFFCURVE",
"388 53 CURVE",
"422 -9 LINE",
"498 18 OFFCURVE",
"541 72 OFFCURVE",
"541 142 CURVE SMOOTH",
"541 234 OFFCURVE",
"465 298 OFFCURVE",
"344 308 CURVE",
"344 536 LINE",
"256 536 LINE",
"256 309 LINE",
"127 301 OFFCURVE",
"40 233 OFFCURVE",
"40 138 CURVE SMOOTH"
);
},
{
closed = 1;
nodes = (
"256 96 OFFCURVE",
"235 64 OFFCURVE",
"192 64 CURVE SMOOTH",
"153 64 OFFCURVE",
"130 88 OFFCURVE",
"130 135 CURVE SMOOTH",
"130 193 OFFCURVE",
"172 232 OFFCURVE",
"256 238 CURVE",
"256 144 LINE SMOOTH"
);
}
);
width = 581;
}
);
note = uni10434;
unicode = 10434;
},
{
glyphname = uni10435;
lastChange = "2017-01-11 16:50:05 +0000";
layers = (
{
layerId = "7C5BF59D-7654-4B4F-ABB3-02620379C849";
paths = (
{
closed = 1;
nodes = (
"142 546 OFFCURVE",
"64 486 OFFCURVE",
"64 398 CURVE SMOOTH",
"64 341 OFFCURVE",
"100 299 OFFCURVE",
"159 279 CURVE",
"89 260 OFFCURVE",
"43 218 OFFCURVE",
"43 146 CURVE SMOOTH",
"43 50 OFFCURVE",
"119 -9 OFFCURVE",
"244 -9 CURVE SMOOTH",
"403 -9 OFFCURVE",
"494 94 OFFCURVE",
"494 268 CURVE SMOOTH",
"494 451 OFFCURVE",
"414 546 OFFCURVE",
"261 546 CURVE SMOOTH"
);
},
{
closed = 1;
nodes = (
"312 331 OFFCURVE",
"290 373 OFFCURVE",
"290 419 CURVE SMOOTH",
"290 443 OFFCURVE",
"293 463 OFFCURVE",
"299 479 CURVE",
"359 463 OFFCURVE",
"396 404 OFFCURVE",
"403 310 CURVE",
"345 310 LINE"
);
},
{
closed = 1;
nodes = (
"147 449 OFFCURVE",
"182 478 OFFCURVE",
"245 480 CURVE",
"238 460 OFFCURVE",
"235 438 OFFCURVE",
"235 415 CURVE SMOOTH",
"235 375 OFFCURVE",
"250 336 OFFCURVE",
"278 310 CURVE",
"190 310 OFFCURVE",
"147 339 OFFCURVE",
"147 398 CURVE SMOOTH"
);
},
{
closed = 1;
nodes = (
"178 62 OFFCURVE",
"130 93 OFFCURVE",
"130 148 CURVE SMOOTH",
"130 211 OFFCURVE",
"186 242 OFFCURVE",
"298 242 CURVE SMOOTH",
"403 242 LINE",
"399 125 OFFCURVE",
"344 62 OFFCURVE",
"248 62 CURVE SMOOTH"
);
}
);
width = 549;
}
);
note = uni10435;
unicode = 10435;
},
{
glyphname = uni10436;
lastChange = "2017-01-11 16:50:05 +0000";
layers = (
{
layerId = "7C5BF59D-7654-4B4F-ABB3-02620379C849";
paths = (
{
closed = 1;
nodes = (
"269 -10 OFFCURVE",
"307 18 OFFCURVE",
"327 72 CURVE",
"342 21 OFFCURVE",
"382 -10 OFFCURVE",
"441 -10 CURVE SMOOTH",
"544 -10 OFFCURVE",
"596 77 OFFCURVE",
"596 251 CURVE SMOOTH",
"596 353 OFFCURVE",
"581 436 OFFCURVE",
"544 536 CURVE",
"453 536 LINE",
"496 417 OFFCURVE",
"508 340 OFFCURVE",
"508 250 CURVE SMOOTH",
"508 125 OFFCURVE",
"482 63 OFFCURVE",
"431 63 CURVE SMOOTH",
"391 63 OFFCURVE",
"370 105 OFFCURVE",
"370 191 CURVE SMOOTH",
"370 320 LINE",
"286 320 LINE",
"286 191 LINE SMOOTH",
"286 105 OFFCURVE",
"265 63 OFFCURVE",
"222 63 CURVE SMOOTH",
"161 63 OFFCURVE",
"146 161 OFFCURVE",
"146 250 CURVE SMOOTH",
"146 353 OFFCURVE",
"171 445 OFFCURVE",
"202 536 CURVE",
"112 536 LINE",
"74 432 OFFCURVE",
"58 349 OFFCURVE",
"58 251 CURVE SMOOTH",
"58 77 OFFCURVE",
"108 -10 OFFCURVE",
"212 -10 CURVE SMOOTH"
);
}
);
width = 654;
}
);
note = uni10436;
unicode = 10436;
},
{
glyphname = uni10437;
lastChange = "2017-01-11 16:50:05 +0000";
layers = (
{
layerId = "7C5BF59D-7654-4B4F-ABB3-02620379C849";
paths = (
{
closed = 1;
nodes = (
"600 363 OFFCURVE",
"555 335 OFFCURVE",
"516 322 CURVE",
"583 536 LINE",
"494 536 LINE",
"424 304 LINE",
"405 303 OFFCURVE",
"388 302 OFFCURVE",
"372 302 CURVE SMOOTH",
"350 302 OFFCURVE",
"311 306 OFFCURVE",
"305 307 CURVE",
"274 420 LINE SMOOTH",
"250 507 OFFCURVE",
"210 543 OFFCURVE",
"140 543 CURVE SMOOTH",
"76 543 OFFCURVE",
"30 500 OFFCURVE",
"30 437 CURVE SMOOTH",
"30 351 OFFCURVE",
"108 282 OFFCURVE",
"237 255 CURVE",
"309 0 LINE",
"414 0 LINE",
"495 252 LINE",
"570 268 OFFCURVE",
"639 305 OFFCURVE",
"686 354 CURVE",
"636 401 LINE"
);
},
{
closed = 1;
nodes = (
"162 474 OFFCURVE",
"178 456 OFFCURVE",
"189 420 CURVE SMOOTH",
"219 323 LINE",
"157 340 OFFCURVE",
"110 390 OFFCURVE",
"110 436 CURVE SMOOTH",
"110 463 OFFCURVE",
"125 474 OFFCURVE",
"143 474 CURVE SMOOTH"
);
},
{
closed = 1;
nodes = (
"322 243 LINE",
"335 242 OFFCURVE",
"359 241 OFFCURVE",
"373 241 CURVE SMOOTH",
"388 241 OFFCURVE",
"393 241 OFFCURVE",
"407 242 CURVE",
"363 97 LINE"
);
}
);
width = 703;
}
);
note = uni10437;
unicode = 10437;
},
{
glyphname = uni10438;
lastChange = "2017-01-11 16:50:05 +0000";
layers = (
{
layerId = "7C5BF59D-7654-4B4F-ABB3-02620379C849";
paths = (
{
closed = 1;
nodes = (
"541 490 OFFCURVE",
"483 544 OFFCURVE",
"392 544 CURVE SMOOTH",
"293 544 OFFCURVE",
"237 482 OFFCURVE",
"237 386 CURVE SMOOTH",
"237 302 LINE",
"170 311 OFFCURVE",
"130 347 OFFCURVE",
"130 398 CURVE SMOOTH",
"130 438 OFFCURVE",
"151 466 OFFCURVE",
"193 483 CURVE",
"159 545 LINE",
"83 518 OFFCURVE",
"40 464 OFFCURVE",
"40 394 CURVE SMOOTH",
"40 302 OFFCURVE",
"117 236 OFFCURVE",
"237 228 CURVE",
"237 0 LINE",
"325 0 LINE",
"325 227 LINE",
"456 236 OFFCURVE",
"541 303 OFFCURVE",
"541 398 CURVE SMOOTH"
);
},
{
closed = 1;
nodes = (
"325 440 OFFCURVE",
"346 472 OFFCURVE",
"389 472 CURVE SMOOTH",
"427 472 OFFCURVE",
"451 448 OFFCURVE",
"451 401 CURVE SMOOTH",
"451 342 OFFCURVE",
"409 304 OFFCURVE",
"325 298 CURVE",
"325 392 LINE SMOOTH"
);
}
);
width = 581;
}
);
note = uni10438;
unicode = 10438;
},
{
glyphname = uni10439;
lastChange = "2017-01-11 16:50:05 +0000";
layers = (
{
layerId = "7C5BF59D-7654-4B4F-ABB3-02620379C849";
paths = (
{
closed = 1;
nodes = (
"15 462 LINE",
"263 462 LINE",
"263 0 LINE",
"351 0 LINE",
"351 536 LINE",
"15 536 LINE"
);
}
);
width = 436;
}
);
note = uni10439;
unicode = 10439;
},
{
glyphname = uni1043A;
lastChange = "2017-01-11 16:50:05 +0000";
layers = (
{
layerId = "7C5BF59D-7654-4B4F-ABB3-02620379C849";
paths = (
{
closed = 1;
nodes = (
"406 536 LINE",
"406 475 LINE",
"370 522 OFFCURVE",
"319 546 OFFCURVE",
"253 546 CURVE SMOOTH",
"141 546 OFFCURVE",
"64 487 OFFCURVE",
"64 398 CURVE SMOOTH",
"64 341 OFFCURVE",
"100 299 OFFCURVE",
"159 279 CURVE",
"89 260 OFFCURVE",
"43 218 OFFCURVE",
"43 146 CURVE SMOOTH",
"43 52 OFFCURVE",
"117 -9 OFFCURVE",
"234 -9 CURVE SMOOTH",
"309 -9 OFFCURVE",
"366 19 OFFCURVE",
"406 73 CURVE",
"406 0 LINE",
"494 0 LINE",
"494 536 LINE"
);
},
{
closed = 1;
nodes = (
"354 474 OFFCURVE",
"403 408 OFFCURVE",
"406 277 CURVE SMOOTH",
"406 258 LINE SMOOTH",
"403 131 OFFCURVE",
"350 62 OFFCURVE",
"248 62 CURVE SMOOTH",
"171 62 OFFCURVE",
"130 95 OFFCURVE",
"130 148 CURVE SMOOTH",
"130 211 OFFCURVE",
"186 242 OFFCURVE",
"298 242 CURVE SMOOTH",
"339 242 LINE",
"339 313 LINE",
"302 313 LINE SMOOTH",
"195 313 OFFCURVE",
"151 338 OFFCURVE",
"151 395 CURVE SMOOTH",
"151 444 OFFCURVE",
"188 474 OFFCURVE",
"259 474 CURVE SMOOTH"
);
}
);
width = 567;
}
);
note = uni1043A;
unicode = 1043A;
},
{
glyphname = uni1043B;
lastChange = "2017-01-11 16:50:05 +0000";
layers = (
{
layerId = "7C5BF59D-7654-4B4F-ABB3-02620379C849";
paths = (
{
closed = 1;
nodes = (
"100 424 OFFCURVE",
"139 472 OFFCURVE",
"226 472 CURVE SMOOTH",
"308 472 OFFCURVE",
"345 428 OFFCURVE",
"345 331 CURVE SMOOTH",
"345 0 LINE",
"432 0 LINE",
"432 344 LINE SMOOTH",
"432 478 OFFCURVE",
"365 545 OFFCURVE",
"230 545 CURVE SMOOTH",
"88 545 OFFCURVE",
"15 471 OFFCURVE",
"15 327 CURVE",
"100 327 LINE"
);
}
);
width = 517;
}
);
note = uni1043B;
unicode = 1043B;
},
{
glyphname = uni1043C;
lastChange = "2017-01-11 16:50:05 +0000";
layers = (
{
layerId = "7C5BF59D-7654-4B4F-ABB3-02620379C849";
paths = (
{
closed = 1;
nodes = (
"484 0 LINE",
"484 536 LINE",
"395 536 LINE",
"395 466 LINE",
"371 517 OFFCURVE",
"321 546 OFFCURVE",
"264 546 CURVE SMOOTH",
"129 546 OFFCURVE",
"55 447 OFFCURVE",
"55 268 CURVE SMOOTH",
"55 94 OFFCURVE",
"125 -9 OFFCURVE",
"254 -9 CURVE SMOOTH",
"320 -9 OFFCURVE",
"367 20 OFFCURVE",
"395 78 CURVE",
"395 0 LINE"
);
},
{
closed = 1;
nodes = (
"344 474 OFFCURVE",
"395 425 OFFCURVE",
"395 355 CURVE SMOOTH",
"395 289 OFFCURVE",
"343 235 OFFCURVE",
"279 235 CURVE SMOOTH",
"208 235 OFFCURVE",
"153 285 OFFCURVE",
"153 351 CURVE SMOOTH",
"153 418 OFFCURVE",
"205 474 OFFCURVE",
"271 474 CURVE SMOOTH"
);
},
{
closed = 1;
nodes = (
"324 175 OFFCURVE",
"368 198 OFFCURVE",
"395 240 CURVE",
"395 161 LINE",
"379 104 OFFCURVE",
"332 64 OFFCURVE",
"272 64 CURVE SMOOTH",
"198 64 OFFCURVE",
"150 132 OFFCURVE",
"146 244 CURVE",
"173 201 OFFCURVE",
"223 175 OFFCURVE",
"275 175 CURVE SMOOTH"
);
}
);
width = 569;
}
);
note = uni1043C;
unicode = 1043C;
},
{
glyphname = uni1043D;
lastChange = "2017-01-11 16:50:05 +0000";
layers = (
{
layerId = "7C5BF59D-7654-4B4F-ABB3-02620379C849";
paths = (
{
closed = 1;
nodes = (
"355 -10 OFFCURVE",
"401 0 OFFCURVE",
"438 19 CURVE",
"438 97 LINE",
"393 76 OFFCURVE",
"346 66 OFFCURVE",
"299 66 CURVE SMOOTH",
"198 66 OFFCURVE",
"146 137 OFFCURVE",
"146 266 CURVE SMOOTH",
"146 401 OFFCURVE",
"196 469 OFFCURVE",
"304 469 CURVE SMOOTH",
"336 469 OFFCURVE",
"375 461 OFFCURVE",
"420 444 CURVE",
"447 517 LINE",
"414 534 OFFCURVE",
"358 546 OFFCURVE",
"306 546 CURVE SMOOTH",
"146 546 OFFCURVE",
"55 445 OFFCURVE",
"55 265 CURVE SMOOTH",
"55 88 OFFCURVE",
"146 -10 OFFCURVE",
"300 -10 CURVE SMOOTH"
);
}
);
width = 480;
}
);
note = uni1043D;
unicode = 1043D;
},
{
glyphname = uni1043E;
lastChange = "2017-01-11 16:50:05 +0000";
layers = (
{
layerId = "7C5BF59D-7654-4B4F-ABB3-02620379C849";
paths = (
{
closed = 1;
nodes = (
"260 178 OFFCURVE",
"280 180 OFFCURVE",
"297 184 CURVE",
"173 0 LINE",
"275 0 LINE",
"418 233 LINE",
"361 279 LINE",
"339 261 OFFCURVE",
"294 249 OFFCURVE",
"256 249 CURVE SMOOTH",
"181 249 OFFCURVE",
"137 288 OFFCURVE",
"137 356 CURVE SMOOTH",
"137 430 OFFCURVE",
"187 472 OFFCURVE",
"267 472 CURVE SMOOTH",
"307 472 OFFCURVE",
"347 460 OFFCURVE",
"386 436 CURVE",
"425 501 LINE",
"385 528 OFFCURVE",
"327 544 OFFCURVE",
"271 544 CURVE SMOOTH",
"136 544 OFFCURVE",
"47 469 OFFCURVE",
"47 354 CURVE SMOOTH",
"47 243 OFFCURVE",
"121 178 OFFCURVE",
"238 178 CURVE SMOOTH"
);
}
);
width = 463;
}
);
note = uni1043E;
unicode = 1043E;
},
{
glyphname = uni1043F;
lastChange = "2017-01-11 16:50:05 +0000";
layers = (
{
layerId = "7C5BF59D-7654-4B4F-ABB3-02620379C849";
paths = (
{
closed = 1;
nodes = (
"146 394 OFFCURVE",
"208 471 OFFCURVE",
"327 471 CURVE SMOOTH",
"446 471 OFFCURVE",
"508 395 OFFCURVE",
"508 250 CURVE SMOOTH",
"508 125 OFFCURVE",
"482 63 OFFCURVE",
"431 63 CURVE SMOOTH",
"391 63 OFFCURVE",
"370 105 OFFCURVE",
"370 191 CURVE SMOOTH",
"370 320 LINE",
"286 320 LINE",
"286 191 LINE SMOOTH",
"286 105 OFFCURVE",
"265 63 OFFCURVE",
"222 63 CURVE SMOOTH",
"161 63 OFFCURVE",
"146 161 OFFCURVE",
"146 250 CURVE SMOOTH"
);
},
{
closed = 1;
nodes = (
"58 77 OFFCURVE",
"108 -10 OFFCURVE",
"212 -10 CURVE SMOOTH",
"269 -10 OFFCURVE",
"307 18 OFFCURVE",
"327 72 CURVE",
"342 21 OFFCURVE",
"382 -10 OFFCURVE",
"441 -10 CURVE SMOOTH",
"544 -10 OFFCURVE",
"596 77 OFFCURVE",
"596 251 CURVE SMOOTH",
"596 433 OFFCURVE",
"495 544 OFFCURVE",
"328 544 CURVE SMOOTH",
"157 544 OFFCURVE",
"58 425 OFFCURVE",
"58 251 CURVE SMOOTH"
);
}
);
width = 654;
}
);
note = uni1043F;
unicode = 1043F;
},
{
glyphname = uni10440;
lastChange = "2017-01-11 16:50:05 +0000";
layers = (
{
layerId = "7C5BF59D-7654-4B4F-ABB3-02620379C849";
paths = (
{
closed = 1;
nodes = (
"58 77 OFFCURVE",
"108 -10 OFFCURVE",
"212 -10 CURVE SMOOTH",
"269 -10 OFFCURVE",
"307 18 OFFCURVE",
"327 72 CURVE",
"342 21 OFFCURVE",
"382 -10 OFFCURVE",
"441 -10 CURVE SMOOTH",
"544 -10 OFFCURVE",
"596 77 OFFCURVE",
"596 251 CURVE SMOOTH",
"596 433 OFFCURVE",
"495 544 OFFCURVE",
"328 544 CURVE SMOOTH",
"157 544 OFFCURVE",
"58 425 OFFCURVE",
"58 251 CURVE SMOOTH"
);
},
{
closed = 1;
nodes = (
"146 373 OFFCURVE",
"189 445 OFFCURVE",
"277 466 CURVE",
"273 450 OFFCURVE",
"272 432 OFFCURVE",
"272 413 CURVE SMOOTH",
"272 304 OFFCURVE",
"334 250 OFFCURVE",
"442 250 CURVE SMOOTH",
"467 250 OFFCURVE",
"489 252 OFFCURVE",
"508 256 CURVE",
"508 127 OFFCURVE",
"482 63 OFFCURVE",
"431 63 CURVE SMOOTH",
"391 63 OFFCURVE",
"370 105 OFFCURVE",
"370 191 CURVE SMOOTH",
"370 223 LINE",
"286 223 LINE",
"286 191 LINE SMOOTH",
"286 105 OFFCURVE",
"265 63 OFFCURVE",
"222 63 CURVE SMOOTH",
"161 63 OFFCURVE",
"146 161 OFFCURVE",
"146 250 CURVE SMOOTH"
);
},
{
closed = 1;
nodes = (
"432 468 OFFCURVE",
"489 413 OFFCURVE",
"505 306 CURVE",
"494 304 OFFCURVE",
"472 301 OFFCURVE",
"452 301 CURVE SMOOTH",
"364 301 OFFCURVE",
"330 335 OFFCURVE",
"330 427 CURVE SMOOTH",
"330 442 OFFCURVE",
"332 457 OFFCURVE",
"334 471 CURVE"
);
}
);
width = 654;
}
);
note = uni10440;
unicode = 10440;
},
{
glyphname = uni10441;
lastChange = "2017-01-11 16:50:05 +0000";
layers = (
{
layerId = "7C5BF59D-7654-4B4F-ABB3-02620379C849";
paths = (
{
closed = 1;
nodes = (
"472 479 OFFCURVE",
"400 544 OFFCURVE",
"285 544 CURVE SMOOTH",
"156 544 OFFCURVE",
"81 479 OFFCURVE",
"81 350 CURVE SMOOTH",
"81 0 LINE",
"169 0 LINE",
"169 202 LINE",
"233 202 LINE SMOOTH",
"388 202 OFFCURVE",
"472 263 OFFCURVE",
"472 374 CURVE SMOOTH"
);
},
{
closed = 1;
nodes = (
"169 430 OFFCURVE",
"206 472 OFFCURVE",
"280 472 CURVE SMOOTH",
"344 472 OFFCURVE",
"382 435 OFFCURVE",
"382 378 CURVE SMOOTH",
"382 304 OFFCURVE",
"335 274 OFFCURVE",
"220 274 CURVE SMOOTH",
"169 274 LINE",
"169 344 LINE SMOOTH"
);
}
);
width = 526;
}
);
note = uni10441;
unicode = 10441;
},
{
glyphname = uni10442;
lastChange = "2017-01-11 16:50:05 +0000";
layers = (
{
layerId = "7C5BF59D-7654-4B4F-ABB3-02620379C849";
paths = (
{
closed = 1;
nodes = (
"421 491 OFFCURVE",
"357 543 OFFCURVE",
"224 543 CURVE SMOOTH",
"160 543 OFFCURVE",
"99 527 OFFCURVE",
"40 495 CURVE",
"78 433 LINE",
"123 460 OFFCURVE",
"168 473 OFFCURVE",
"216 473 CURVE SMOOTH",
"293 473 OFFCURVE",
"329 443 OFFCURVE",
"329 394 CURVE SMOOTH",
"329 340 OFFCURVE",
"283 312 OFFCURVE",
"172 312 CURVE SMOOTH",
"130 312 LINE",
"130 242 LINE",
"194 242 LINE SMOOTH",
"300 242 OFFCURVE",
"350 213 OFFCURVE",
"350 149 CURVE SMOOTH",
"350 96 OFFCURVE",
"301 62 OFFCURVE",
"213 62 CURVE SMOOTH",
"161 62 OFFCURVE",
"105 73 OFFCURVE",
"45 96 CURVE",
"45 24 LINE",
"92 3 OFFCURVE",
"150 -8 OFFCURVE",
"217 -8 CURVE SMOOTH",
"354 -8 OFFCURVE",
"443 58 OFFCURVE",
"443 154 CURVE SMOOTH",
"443 219 OFFCURVE",
"403 261 OFFCURVE",
"324 281 CURVE",
"389 304 OFFCURVE",
"421 348 OFFCURVE",
"421 406 CURVE SMOOTH"
);
}
);
width = 486;
}
);
note = uni10442;
unicode = 10442;
},
{
glyphname = uni10443;
lastChange = "2017-01-11 16:50:05 +0000";
layers = (
{
layerId = "7C5BF59D-7654-4B4F-ABB3-02620379C849";
paths = (
{
closed = 1;
nodes = (
"421 74 LINE",
"173 74 LINE",
"173 536 LINE",
"85 536 LINE",
"85 0 LINE",
"421 0 LINE"
);
}
);
width = 436;
}
);
note = uni10443;
unicode = 10443;
},
{
glyphname = uni10444;
lastChange = "2017-01-11 16:50:05 +0000";
layers = (
{
layerId = "7C5BF59D-7654-4B4F-ABB3-02620379C849";
paths = (
{
closed = 1;
nodes = (
"387 536 LINE",
"239 334 LINE",
"88 536 LINE",
"-12 536 LINE",
"190 272 LINE",
"146 211 OFFCURVE",
"112 165 OFFCURVE",
"112 106 CURVE SMOOTH",
"112 30 OFFCURVE",
"162 -11 OFFCURVE",
"240 -11 CURVE SMOOTH",
"317 -11 OFFCURVE",
"370 37 OFFCURVE",
"370 109 CURVE SMOOTH",
"370 163 OFFCURVE",
"336 213 OFFCURVE",
"291 273 CURVE",
"486 536 LINE"
);
},
{
closed = 1;
nodes = (
"291 80 OFFCURVE",
"274 57 OFFCURVE",
"239 57 CURVE SMOOTH",
"208 57 OFFCURVE",
"190 77 OFFCURVE",
"190 106 CURVE SMOOTH",
"190 135 OFFCURVE",
"207 175 OFFCURVE",
"238 214 CURVE",
"269 177 OFFCURVE",
"291 137 OFFCURVE",
"291 108 CURVE SMOOTH"
);
}
);
width = 474;
}
);
note = uni10444;
unicode = 10444;
},
{
glyphname = uni10445;
lastChange = "2017-01-11 16:50:05 +0000";
layers = (
{
layerId = "7C5BF59D-7654-4B4F-ABB3-02620379C849";
paths = (
{
closed = 1;
nodes = (
"175 543 OFFCURVE",
"105 494 OFFCURVE",
"105 420 CURVE SMOOTH",
"105 392 OFFCURVE",
"118 365 OFFCURVE",
"144 340 CURVE",
"115 344 OFFCURVE",
"59 367 OFFCURVE",
"35 381 CURVE",
"8 325 LINE",
"59 295 OFFCURVE",
"127 280 OFFCURVE",
"213 279 CURVE",
"245 258 LINE",
"140 238 OFFCURVE",
"82 188 OFFCURVE",
"82 119 CURVE SMOOTH",
"82 40 OFFCURVE",
"151 -8 OFFCURVE",
"272 -8 CURVE SMOOTH",
"374 -8 OFFCURVE",
"468 34 OFFCURVE",
"468 118 CURVE SMOOTH",
"468 158 OFFCURVE",
"449 190 OFFCURVE",
"412 215 CURVE",
"447 209 OFFCURVE",
"502 188 OFFCURVE",
"527 174 CURVE",
"556 232 LINE",
"509 255 OFFCURVE",
"436 269 OFFCURVE",
"337 273 CURVE",
"304 293 LINE",
"407 316 OFFCURVE",
"458 358 OFFCURVE",
"458 419 CURVE SMOOTH",
"458 495 OFFCURVE",
"386 543 OFFCURVE",
"284 543 CURVE SMOOTH"
);
},
{
closed = 1;
nodes = (
"167 179 OFFCURVE",
"216 208 OFFCURVE",
"313 215 CURVE",
"357 193 OFFCURVE",
"387 159 OFFCURVE",
"387 128 CURVE SMOOTH",
"387 82 OFFCURVE",
"347 57 OFFCURVE",
"277 57 CURVE SMOOTH",
"209 57 OFFCURVE",
"167 84 OFFCURVE",
"167 127 CURVE SMOOTH"
);
},
{
closed = 1;
nodes = (
"336 479 OFFCURVE",
"372 456 OFFCURVE",
"372 417 CURVE SMOOTH",
"372 373 OFFCURVE",
"328 346 OFFCURVE",
"240 337 CURVE",
"198 363 OFFCURVE",
"185 388 OFFCURVE",
"185 417 CURVE SMOOTH",
"185 456 OFFCURVE",
"222 479 OFFCURVE",
"280 479 CURVE SMOOTH"
);
}
);
width = 560;
}
);
note = uni10445;
unicode = 10445;
},
{
glyphname = uni10446;
lastChange = "2017-01-11 16:50:05 +0000";
layers = (
{
layerId = "7C5BF59D-7654-4B4F-ABB3-02620379C849";
paths = (
{
closed = 1;
nodes = (
"234 366 OFFCURVE",
"180 343 OFFCURVE",
"149 301 CURVE",
"154 410 OFFCURVE",
"214 472 OFFCURVE",
"303 472 CURVE SMOOTH",
"349 472 OFFCURVE",
"394 461 OFFCURVE",
"439 439 CURVE",
"463 508 LINE",
"413 533 OFFCURVE",
"359 546 OFFCURVE",
"302 546 CURVE SMOOTH",
"149 546 OFFCURVE",
"55 438 OFFCURVE",
"55 268 CURVE SMOOTH",
"55 90 OFFCURVE",
"137 -10 OFFCURVE",
"280 -10 CURVE SMOOTH",
"395 -10 OFFCURVE",
"489 73 OFFCURVE",
"489 186 CURVE SMOOTH",
"489 297 OFFCURVE",
"411 366 OFFCURVE",
"293 366 CURVE SMOOTH"
);
},
{
closed = 1;
nodes = (
"207 63 OFFCURVE",
"156 118 OFFCURVE",
"156 192 CURVE SMOOTH",
"156 250 OFFCURVE",
"210 295 OFFCURVE",
"283 295 CURVE SMOOTH",
"354 295 OFFCURVE",
"398 252 OFFCURVE",
"398 181 CURVE SMOOTH",
"398 112 OFFCURVE",
"348 63 OFFCURVE",
"279 63 CURVE SMOOTH"
);
}
);
width = 533;
}
);
note = uni10446;
unicode = 10446;
},
{
glyphname = uni10447;
lastChange = "2017-01-11 16:50:05 +0000";
layers = (
{
layerId = "7C5BF59D-7654-4B4F-ABB3-02620379C849";
paths = (
{
closed = 1;
nodes = (
"85 536 LINE",
"85 0 LINE",
"174 0 LINE",
"174 69 LINE",
"202 17 OFFCURVE",
"245 -10 OFFCURVE",
"305 -10 CURVE SMOOTH",
"448 -10 OFFCURVE",
"514 104 OFFCURVE",
"514 268 CURVE SMOOTH",
"514 443 OFFCURVE",
"442 545 OFFCURVE",
"315 545 CURVE SMOOTH",
"249 545 OFFCURVE",
"199 513 OFFCURVE",
"174 460 CURVE",
"174 536 LINE"
);
},
{
closed = 1;
nodes = (
"191 435 OFFCURVE",
"236 472 OFFCURVE",
"297 472 CURVE SMOOTH",
"385 472 OFFCURVE",
"423 380 OFFCURVE",
"423 268 CURVE SMOOTH",
"423 135 OFFCURVE",
"379 63 OFFCURVE",
"293 63 CURVE SMOOTH",
"236 63 OFFCURVE",
"188 102 OFFCURVE",
"174 160 CURVE",
"174 369 LINE"
);
}
);
width = 569;
}
);
note = uni10447;
unicode = 10447;
},
{
glyphname = uni10448;
lastChange = "2017-01-11 16:50:05 +0000";
layers = (
{
layerId = "7C5BF59D-7654-4B4F-ABB3-02620379C849";
paths = (
{
closed = 1;
nodes = (
"434 239 OFFCURVE",
"371 268 OFFCURVE",
"273 307 CURVE SMOOTH",
"191 340 OFFCURVE",
"135 358 OFFCURVE",
"135 409 CURVE SMOOTH",
"135 450 OFFCURVE",
"173 474 OFFCURVE",
"246 474 CURVE SMOOTH",
"290 474 OFFCURVE",
"339 463 OFFCURVE",
"393 440 CURVE",
"423 510 LINE",
"370 534 OFFCURVE",
"313 546 OFFCURVE",
"252 546 CURVE SMOOTH",
"127 546 OFFCURVE",
"51 492 OFFCURVE",
"51 404 CURVE SMOOTH",
"51 314 OFFCURVE",
"109 286 OFFCURVE",
"217 244 CURVE SMOOTH",
"291 215 OFFCURVE",
"349 191 OFFCURVE",
"349 140 CURVE SMOOTH",
"349 92 OFFCURVE",
"311 61 OFFCURVE",
"222 61 CURVE SMOOTH",
"167 61 OFFCURVE",
"111 75 OFFCURVE",
"52 104 CURVE",
"52 24 LINE",
"93 1 OFFCURVE",
"149 -10 OFFCURVE",
"220 -10 CURVE SMOOTH",
"355 -10 OFFCURVE",
"434 48 OFFCURVE",
"434 148 CURVE SMOOTH"
);
}
);
width = 479;
}
);
note = uni10448;
unicode = 10448;
},
{
glyphname = uni10449;
lastChange = "2017-01-11 16:50:05 +0000";
layers = (
{
layerId = "7C5BF59D-7654-4B4F-ABB3-02620379C849";
paths = (
{
closed = 1;
nodes = (
"40 194 OFFCURVE",
"122 129 OFFCURVE",
"256 122 CURVE",
"256 0 LINE",
"344 0 LINE",
"344 122 LINE",
"469 136 OFFCURVE",
"541 196 OFFCURVE",
"541 288 CURVE SMOOTH",
"541 360 OFFCURVE",
"500 410 OFFCURVE",
"422 431 CURVE",
"393 364 LINE",
"436 353 OFFCURVE",
"454 325 OFFCURVE",
"454 290 CURVE SMOOTH",
"454 242 OFFCURVE",
"413 205 OFFCURVE",
"344 195 CURVE",
"344 536 LINE",
"256 536 LINE",
"256 369 LINE",
"242 408 OFFCURVE",
"205 427 OFFCURVE",
"166 427 CURVE SMOOTH",
"90 427 OFFCURVE",
"40 376 OFFCURVE",
"40 294 CURVE SMOOTH"
);
},
{
closed = 1;
nodes = (
"172 199 OFFCURVE",
"130 234 OFFCURVE",
"130 296 CURVE SMOOTH",
"130 331 OFFCURVE",
"147 356 OFFCURVE",
"184 356 CURVE SMOOTH",
"232 356 OFFCURVE",
"256 300 OFFCURVE",
"256 237 CURVE SMOOTH",
"256 192 LINE"
);
}
);
width = 581;
}
);
note = uni10449;
unicode = 10449;
},
{
glyphname = uni1044A;
lastChange = "2017-01-11 16:50:05 +0000";
layers = (
{
layerId = "7C5BF59D-7654-4B4F-ABB3-02620379C849";
paths = (
{
closed = 1;
nodes = (
"417 111 OFFCURVE",
"378 64 OFFCURVE",
"291 64 CURVE SMOOTH",
"209 64 OFFCURVE",
"172 108 OFFCURVE",
"172 205 CURVE SMOOTH",
"172 536 LINE",
"85 536 LINE",
"85 192 LINE SMOOTH",
"85 58 OFFCURVE",
"152 -9 OFFCURVE",
"287 -9 CURVE SMOOTH",
"429 -9 OFFCURVE",
"502 65 OFFCURVE",
"502 209 CURVE",
"417 209 LINE"
);
}
);
width = 517;
}
);
note = uni1044A;
unicode = 1044A;
},
{
glyphname = uni1044B;
lastChange = "2017-01-11 16:50:05 +0000";
layers = (
{
layerId = "7C5BF59D-7654-4B4F-ABB3-02620379C849";
paths = (
{
closed = 1;
nodes = (
"331 -10 OFFCURVE",
"425 94 OFFCURVE",
"425 272 CURVE SMOOTH",
"425 452 OFFCURVE",
"345 546 OFFCURVE",
"183 546 CURVE SMOOTH",
"126 546 OFFCURVE",
"68 535 OFFCURVE",
"33 517 CURVE",
"53 443 LINE",
"88 460 OFFCURVE",
"127 469 OFFCURVE",
"173 469 CURVE SMOOTH",
"280 469 OFFCURVE",
"334 400 OFFCURVE",
"334 262 CURVE SMOOTH",
"334 137 OFFCURVE",
"279 66 OFFCURVE",
"178 66 CURVE SMOOTH",
"120 66 OFFCURVE",
"78 81 OFFCURVE",
"39 100 CURVE",
"39 22 LINE",
"84 -2 OFFCURVE",
"120 -10 OFFCURVE",
"171 -10 CURVE SMOOTH"
);
}
);
width = 480;
}
);
note = uni1044B;
unicode = 1044B;
},
{
glyphname = uni1044C;
lastChange = "2017-01-11 16:50:05 +0000";
layers = (
{
layerId = "7C5BF59D-7654-4B4F-ABB3-02620379C849";
paths = (
{
closed = 1;
nodes = (
"374 0 LINE",
"464 0 LINE",
"464 401 LINE",
"379 401 LINE",
"160 254 LINE",
"160 536 LINE",
"70 536 LINE",
"70 158 LINE",
"154 158 LINE",
"374 302 LINE"
);
}
);
width = 534;
}
);
note = uni1044C;
unicode = 1044C;
},
{
glyphname = uni1044D;
lastChange = "2017-01-11 16:50:05 +0000";
layers = (
{
layerId = "7C5BF59D-7654-4B4F-ABB3-02620379C849";
paths = (
{
closed = 1;
nodes = (
"177 0 LINE",
"432 419 LINE",
"429 375 OFFCURVE",
"427 333 OFFCURVE",
"427 294 CURVE SMOOTH",
"427 0 LINE",
"508 0 LINE",
"508 536 LINE",
"416 536 LINE",
"165 122 LINE",
"166 161 OFFCURVE",
"168 200 OFFCURVE",
"168 239 CURVE SMOOTH",
"168 536 LINE",
"85 536 LINE",
"85 0 LINE"
);
}
);
width = 593;
}
);
note = uni1044D;
unicode = 1044D;
},
{
glyphname = uni1044E;
lastChange = "2017-01-11 16:50:05 +0000";
layers = (
{
layerId = "7C5BF59D-7654-4B4F-ABB3-02620379C849";
paths = (
{
closed = 1;
nodes = (
"444 536 LINE",
"444 417 LINE",
"353 464 LINE",
"311 396 LINE",
"444 327 LINE",
"444 116 LINE",
"345 217 LINE",
"290 217 LINE",
"205 89 LINE",
"71 225 LINE",
"10 168 LINE",
"178 0 LINE",
"240 0 LINE",
"322 127 LINE",
"451 0 LINE",
"532 0 LINE",
"532 282 LINE",
"614 240 LINE",
"655 309 LINE",
"532 372 LINE",
"532 536 LINE"
);
}
);
width = 670;
}
);
note = uni1044E;
unicode = 1044E;
},
{
glyphname = uni1044F;
lastChange = "2017-01-11 16:50:05 +0000";
layers = (
{
layerId = "7C5BF59D-7654-4B4F-ABB3-02620379C849";
paths = (
{
closed = 1;
nodes = (
"551 439 OFFCURVE",
"455 546 OFFCURVE",
"304 546 CURVE SMOOTH",
"146 546 OFFCURVE",
"55 443 OFFCURVE",
"55 269 CURVE SMOOTH",
"55 106 OFFCURVE",
"146 -10 OFFCURVE",
"301 -10 CURVE SMOOTH",
"457 -10 OFFCURVE",
"551 94 OFFCURVE",
"551 269 CURVE SMOOTH"
);
},
{
closed = 1;
nodes = (
"460 152 OFFCURVE",
"418 77 OFFCURVE",
"330 65 CURVE",
"330 198 LINE",
"391 152 LINE",
"414 227 LINE",
"330 290 LINE",
"330 470 LINE",
"415 458 OFFCURVE",
"460 389 OFFCURVE",
"460 269 CURVE SMOOTH"
);
},
{
closed = 1;
nodes = (
"146 392 OFFCURVE",
"190 459 OFFCURVE",
"276 470 CURVE",
"276 331 LINE",
"211 380 LINE",
"188 305 LINE",
"276 238 LINE",
"276 65 LINE",
"191 76 OFFCURVE",
"146 146 OFFCURVE",
"146 269 CURVE SMOOTH"
);
}
